<svg width="14" height="9" viewBox="0 0 14 9" fill="none" xmlns="http://www.w3.org/2000/svg">
<path d="M13.7071 2.20698C14.0976 1.81646 14.0976 1.1833 13.7071 0.792771C13.3166 0.402247 12.6834 0.402247 12.2929 0.792771L13.7071 2.20698ZM7 7.49988L6.29289 8.20698C6.68342 8.59751 7.31658 8.59751 7.70711 8.20698L7 7.49988ZM1.70711 0.792771C1.31658 0.402247 0.683417 0.402247 0.292893 0.792771C-0.0976311 1.1833 -0.0976311 1.81646 0.292893 2.20698L1.70711 0.792771ZM12.2929 0.792771L6.29289 6.79277L7.70711 8.20698L13.7071 2.20698L12.2929 0.792771ZM7.70711 6.79277L1.70711 0.792771L0.292893 2.20698L6.29289 8.20698L7.70711 6.79277Z" fill="#1A3860" fill-opacity="0.4"/>
</svg>
