<svg width="449" height="731" viewBox="0 0 449 731" fill="none" xmlns="http://www.w3.org/2000/svg">
<mask id="mask0_1150_14" style="mask-type:alpha" maskUnits="userSpaceOnUse" x="0" y="0" width="449" height="731">
<rect x="0.1875" width="448.812" height="731" fill="#C4C4C4"/>
</mask>
<g mask="url(#mask0_1150_14)">
<path fill-rule="evenodd" clip-rule="evenodd" d="M476.258 724.729C735.72 724.729 946.055 513.762 946.055 253.521C946.055 -6.72034 735.72 -217.688 476.258 -217.688C216.795 -217.688 6.45996 -6.72034 6.45996 253.521C6.45996 513.762 216.795 724.729 476.258 724.729ZM476.772 595.729C665.274 595.729 818.085 442.517 818.085 253.521C818.085 64.5244 665.274 -88.6875 476.772 -88.6875C288.271 -88.6875 135.46 64.5244 135.46 253.521C135.46 442.517 288.271 595.729 476.772 595.729Z" fill="#00346F"/>
</g>
</svg>
