<svg width="20" height="20" viewBox="0 0 20 20" fill="none" xmlns="http://www.w3.org/2000/svg">
<path fill-rule="evenodd" clip-rule="evenodd" d="M19.7725 10.5505C20.0758 10.2473 20.0758 9.7527 19.7725 9.44954L18.99 8.65178C18.7665 8.42841 18.7026 8.09337 18.8144 7.80614L19.2455 6.76903C19.4052 6.37014 19.2295 5.90745 18.8303 5.7479L17.7924 5.31713C17.505 5.20545 17.3133 4.91823 17.3133 4.59913V3.48227C17.3133 3.0515 16.9621 2.70045 16.5309 2.70045H15.4131C15.0938 2.70045 14.8064 2.50899 14.6946 2.22179L14.2635 1.18469C14.1038 0.785792 13.6407 0.59433 13.2415 0.769855L12.2036 1.20063C11.9162 1.31231 11.5809 1.24849 11.3573 1.02512L10.5589 0.227361C10.2555 -0.075787 9.76048 -0.075787 9.45707 0.227361L8.65868 1.02512C8.43513 1.24849 8.09982 1.31231 7.81236 1.20063L6.77443 0.769855C6.37522 0.610303 5.91217 0.801765 5.75249 1.18469L5.32137 2.22179C5.19363 2.50899 4.92216 2.70045 4.6028 2.70045H3.48505C3.05393 2.70045 2.7026 3.05146 2.7026 3.48227V4.59913C2.7026 4.91823 2.51099 5.20543 2.22356 5.31713L1.18563 5.7479C0.786418 5.90745 0.594804 6.37014 0.770469 6.76903L1.20158 7.80614C1.31336 8.09333 1.24949 8.42837 1.02594 8.65178L0.227542 9.44954C-0.0758475 9.75269 -0.0758475 10.2473 0.227542 10.5505L1.02594 11.3482C1.24949 11.5716 1.31336 11.9066 1.20158 12.1939L0.770469 13.231C0.61079 13.6299 0.786437 14.0925 1.18563 14.2521L2.22356 14.6829C2.51099 14.7946 2.7026 15.0818 2.7026 15.4009V16.5177C2.7026 16.9485 3.0539 17.2996 3.48505 17.2996H4.6028C4.92216 17.2996 5.20958 17.491 5.32137 17.7782L5.75249 18.8153C5.91217 19.2142 6.37522 19.4057 6.77443 19.2301L7.81236 18.7994C8.09978 18.6717 8.43509 18.7515 8.65868 18.9749L9.45707 19.7726C9.76046 20.0758 10.2555 20.0758 10.5589 19.7726L11.3573 18.9749C11.5808 18.7515 11.9161 18.6877 12.2036 18.7994L13.2415 19.2301C13.6407 19.3897 14.1038 19.1982 14.2635 18.8153L14.6946 17.7782C14.8223 17.491 15.0938 17.2996 15.4131 17.2996H16.5309C16.962 17.2996 17.3133 16.9485 17.3133 16.5177V15.4009C17.3133 15.0818 17.505 14.7946 17.7924 14.6829L18.8303 14.2521C19.2295 14.0925 19.4211 13.6299 19.2455 13.231L18.8144 12.1939C18.6866 11.9067 18.7665 11.5716 18.99 11.3482L19.7725 10.5505ZM5.99226 9.40169C5.65693 9.05068 5.48129 8.57202 5.48129 7.96573C5.48129 7.31155 5.6729 6.78504 6.0242 6.40212C6.39144 6.0192 6.87051 5.82773 7.47726 5.82773C8.0521 5.82773 8.51519 6.00324 8.83455 6.3383C9.1539 6.68931 9.32953 7.18394 9.32953 7.80617C9.32953 8.46035 9.13792 8.98686 8.78662 9.35384C8.43533 9.73677 7.94031 9.92823 7.33356 9.92823C6.77471 9.92823 6.3276 9.75272 5.99226 9.40169ZM8.06809 13.8214C7.97228 13.965 7.82857 14.0447 7.66887 14.0447C7.28564 14.0447 7.06209 13.6299 7.26966 13.3108L11.9162 6.16288C12.012 6.03524 12.1557 5.93951 12.3154 5.93951H12.3314C12.7146 5.93951 12.9382 6.35434 12.7306 6.67345L8.06809 13.8214ZM13.9764 13.582C13.6091 13.965 13.1301 14.1564 12.5233 14.1564C11.9645 14.1564 11.5174 13.9809 11.182 13.6299C10.8467 13.2789 10.6711 12.8002 10.6711 12.1939C10.6711 11.5397 10.8627 11.0132 11.214 10.6303C11.5812 10.2474 12.0603 10.0559 12.667 10.0559C13.2579 10.0559 13.705 10.2314 14.0243 10.5665C14.3437 10.9015 14.5033 11.3962 14.5033 12.0344C14.5193 12.6726 14.3437 13.1991 13.9764 13.582ZM12.6378 10.8354C12.2066 10.8354 11.6797 11.0588 11.6797 12.1278C11.6797 13.149 12.1907 13.3564 12.6218 13.3564C13.0529 13.3564 13.5639 13.133 13.5639 12.08C13.5639 11.6971 13.484 11.3939 13.3243 11.1705C13.1487 10.9472 12.9092 10.8354 12.6378 10.8354ZM7.48151 6.62598C7.88073 6.62598 8.37571 6.83338 8.37571 7.87048V7.87052C8.37571 8.92356 7.86474 9.14693 7.44957 9.14693C7.03441 9.14693 6.52344 8.9395 6.52344 7.91836C6.52344 6.84935 7.03441 6.62598 7.48151 6.62598Z" fill="#37A000"/>
</svg>
