<svg width="16" height="15" viewBox="0 0 16 15" fill="none" xmlns="http://www.w3.org/2000/svg">
<path d="M0.8 0H15.2C15.4122 0 15.6157 0.0877973 15.7657 0.244078C15.9157 0.400358 16 0.61232 16 0.833333V14.1667C16 14.3877 15.9157 14.5996 15.7657 14.7559C15.6157 14.9122 15.4122 15 15.2 15H0.8C0.587827 15 0.384344 14.9122 0.234315 14.7559C0.0842854 14.5996 0 14.3877 0 14.1667V0.833333C0 0.61232 0.0842854 0.400358 0.234315 0.244078C0.384344 0.0877973 0.587827 0 0.8 0ZM14.4 3.53167L8.0576 9.44833L1.6 3.51333V13.3333H14.4V3.53167ZM2.0088 1.66667L8.0488 7.21833L14.0016 1.66667H2.0088Z" fill="#7B7B7B"/>
</svg>
