<svg width="270" height="275" viewBox="0 0 270 275" fill="none" xmlns="http://www.w3.org/2000/svg">
<mask id="mask0_1150_16" style="mask-type:alpha" maskUnits="userSpaceOnUse" x="0" y="0" width="270" height="275">
<rect width="269.86" height="275" fill="#C4C4C4"/>
</mask>
<g mask="url(#mask0_1150_16)">
<path fill-rule="evenodd" clip-rule="evenodd" d="M54.8302 437.773C170.277 437.773 263.864 344.185 263.864 228.738C263.864 113.292 170.277 19.7041 54.8302 19.7041C-60.6163 19.7041 -154.204 113.292 -154.204 228.738C-154.204 344.185 -60.6163 437.773 54.8302 437.773ZM54.8302 361.527C128.167 361.527 187.618 302.075 187.618 228.738C187.618 155.401 128.167 95.9502 54.8302 95.9502C-18.5067 95.9502 -77.958 155.401 -77.958 228.738C-77.958 302.075 -18.5067 361.527 54.8302 361.527Z" fill="#37A000"/>
</g>
</svg>
