<svg width="16" height="18" viewBox="0 0 16 18" fill="none" xmlns="http://www.w3.org/2000/svg">
<path d="M14.2222 7.2H15.1111C15.3469 7.2 15.573 7.29482 15.7397 7.4636C15.9064 7.63239 16 7.8613 16 8.1V17.1C16 17.3387 15.9064 17.5676 15.7397 17.7364C15.573 17.9052 15.3469 18 15.1111 18H0.888889C0.653141 18 0.427048 17.9052 0.260349 17.7364C0.0936505 17.5676 0 17.3387 0 17.1V8.1C0 7.8613 0.0936505 7.63239 0.260349 7.4636C0.427048 7.29482 0.653141 7.2 0.888889 7.2H1.77778V6.3C1.77778 5.47267 1.93872 4.65345 2.25142 3.88909C2.56411 3.12474 3.02244 2.43024 3.60022 1.84523C4.17801 1.26022 4.86394 0.796164 5.61886 0.479559C6.37377 0.162954 7.18289 0 8 0C8.81711 0 9.62623 0.162954 10.3811 0.479559C11.1361 0.796164 11.822 1.26022 12.3998 1.84523C12.9776 2.43024 13.4359 3.12474 13.7486 3.88909C14.0613 4.65345 14.2222 5.47267 14.2222 6.3V7.2ZM1.77778 9V16.2H14.2222V9H1.77778ZM7.11111 10.8H8.88889V14.4H7.11111V10.8ZM12.4444 7.2V6.3C12.4444 5.10653 11.9762 3.96193 11.1427 3.11802C10.3092 2.27411 9.17874 1.8 8 1.8C6.82126 1.8 5.6908 2.27411 4.8573 3.11802C4.02381 3.96193 3.55556 5.10653 3.55556 6.3V7.2H12.4444Z" fill="#7B7B7B"/>
</svg>
