<svg width="16" height="18" viewBox="0 0 16 18" fill="none" xmlns="http://www.w3.org/2000/svg">
<path d="M7.99953 13.6391C11.4035 13.6391 14.3808 15.0712 16 17.208L14.2878 18C12.9697 16.4724 10.6459 15.4577 7.99953 15.4577C5.35316 15.4577 3.02934 16.4724 1.71126 18L0 17.2071C1.61924 15.0703 4.5956 13.6391 7.99953 13.6391ZM7.99953 0C9.23217 0 10.4143 0.478992 11.2859 1.3316C12.1575 2.18421 12.6472 3.3406 12.6472 4.54637V7.2742C12.6471 8.44576 12.1847 9.57208 11.3564 10.4183C10.5281 11.2645 9.39778 11.7652 8.20124 11.816L7.99953 11.8206C6.7669 11.8206 5.58475 11.3416 4.71315 10.489C3.84155 9.63636 3.35189 8.47997 3.35189 7.2742V4.54637C3.35195 3.37481 3.81436 2.24849 4.64269 1.4023C5.47101 0.556119 6.60129 0.0553925 7.79783 0.00454648L7.99953 0ZM7.99953 1.81855C7.28825 1.81851 6.60383 2.08435 6.08632 2.56168C5.56881 3.03902 5.25732 3.69175 5.21559 4.38634L5.21095 4.54637V7.2742C5.21025 7.98425 5.49261 8.66659 5.99804 9.17623C6.50348 9.68587 7.19214 9.98264 7.9177 10.0035C8.64326 10.0243 9.34854 9.76758 9.88367 9.28782C10.4188 8.80807 10.7416 8.1431 10.7835 7.43423L10.7881 7.2742V4.54637C10.7881 3.82291 10.4943 3.12908 9.97137 2.61751C9.4484 2.10594 8.73911 1.81855 7.99953 1.81855Z" fill="#7B7B7B"/>
</svg>
