<svg width="106" height="107" viewBox="0 0 106 107" fill="none" xmlns="http://www.w3.org/2000/svg">
<path d="M105.605 62.2047C103.854 72.5399 99.0772 82.1237 91.8794 89.7443C84.6817 97.3648 75.3858 102.68 65.1673 105.017C54.9488 107.355 44.2667 106.609 34.4717 102.876C24.6768 99.1423 16.2089 92.588 10.139 84.0418C4.06905 75.4957 0.66967 65.3415 0.370693 54.8634C0.0717254 44.3852 2.8866 34.0537 8.45935 25.1754C14.0321 16.297 22.1125 9.27053 31.6786 4.9845C41.2447 0.69848 51.867 -0.654608 62.2021 1.09635L57.3461 29.7594C52.68 28.9689 47.8842 29.5798 43.5653 31.5149C39.2464 33.4499 35.5983 36.6222 33.0823 40.6306C30.5663 44.6391 29.2954 49.3035 29.4304 54.0342C29.5654 58.7649 31.1001 63.3493 33.8406 67.2077C36.5811 71.0661 40.4041 74.0253 44.8264 75.7109C49.2486 77.3966 54.0714 77.733 58.6848 76.6777C63.2982 75.6224 67.4952 73.2228 70.7448 69.7822C73.9945 66.3417 76.1509 62.0148 76.9414 57.3487L105.605 62.2047Z" fill="#FFA439"/>
</svg>
