<svg width="152" height="142" viewBox="0 0 152 142" fill="none" xmlns="http://www.w3.org/2000/svg">
<path d="M114.702 0.6973C127.607 8.36314 137.948 19.6835 144.419 33.2268C150.89 46.7701 153.2 61.928 151.056 76.7839C148.912 91.6397 142.411 105.526 132.375 116.687C122.338 127.848 109.218 135.783 94.6726 139.487C80.1271 143.191 64.8099 142.499 50.6578 137.498C36.5056 132.497 24.1543 123.412 15.1656 111.391C6.17698 99.3706 0.954717 84.9544 0.15926 69.9658C-0.636214 54.9771 3.03083 40.0892 10.6967 27.1847L46.4857 48.4448C43.0247 54.271 41.3691 60.9926 41.7282 67.7597C42.0874 74.5268 44.4451 81.0354 48.5033 86.4625C52.5615 91.8896 58.1379 95.9914 64.5273 98.2493C70.9167 100.507 77.8322 100.82 84.3992 99.1471C90.9662 97.4747 96.8897 93.8925 101.421 88.8535C105.952 83.8145 108.887 77.545 109.855 70.8379C110.823 64.1308 109.78 57.2873 106.859 51.1727C103.937 45.0582 99.2684 39.9473 93.4422 36.4863L114.702 0.6973Z" fill="#32CD8C"/>
</svg>
