<svg width="16" height="20" viewBox="0 0 16 20" fill="none" xmlns="http://www.w3.org/2000/svg">
<path d="M1 0H15C15.2652 0 15.5196 0.102072 15.7071 0.283761C15.8946 0.465451 16 0.711874 16 0.968822V19.515C16.0001 19.6016 15.9763 19.6867 15.9309 19.7613C15.8855 19.836 15.8204 19.8975 15.7421 19.9394C15.6639 19.9814 15.5755 20.0022 15.4861 19.9998C15.3968 19.9974 15.3097 19.9718 15.234 19.9258L8 15.5302L0.766 19.9248C0.690368 19.9708 0.603387 19.9964 0.514102 19.9988C0.424817 20.0013 0.336486 19.9805 0.258295 19.9387C0.180104 19.8968 0.114907 19.8355 0.0694828 19.761C0.0240588 19.6865 6.64708e-05 19.6015 0 19.515V0.968822C0 0.711874 0.105357 0.465451 0.292893 0.283761C0.48043 0.102072 0.734784 0 1 0ZM14 1.93764H2V16.8885L8 13.2448L14 16.8885V1.93764Z" fill="#979797"/>
</svg>
