<svg width="22" height="20" viewBox="0 0 22 20" fill="none" xmlns="http://www.w3.org/2000/svg">
<path d="M8.6108 2.22222L6.4108 4.44444H2.2V17.7778H19.8V4.44444H15.5892L13.3892 2.22222H8.6108ZM7.7 0H14.3L16.5 2.22222H20.9C21.1917 2.22222 21.4715 2.33929 21.6778 2.54766C21.8841 2.75603 22 3.03865 22 3.33333V18.8889C22 19.1836 21.8841 19.4662 21.6778 19.6746C21.4715 19.8829 21.1917 20 20.9 20H1.1C0.808262 20 0.528472 19.8829 0.322183 19.6746C0.115892 19.4662 0 19.1836 0 18.8889V3.33333C0 3.03865 0.115892 2.75603 0.322183 2.54766C0.528472 2.33929 0.808262 2.22222 1.1 2.22222H5.5L7.7 0ZM11 16.6667C9.39544 16.6667 7.8566 16.0228 6.722 14.8768C5.58741 13.7307 4.95 12.1763 4.95 10.5556C4.95 8.93479 5.58741 7.3804 6.722 6.23435C7.8566 5.08829 9.39544 4.44444 11 4.44444C12.6046 4.44444 14.1434 5.08829 15.278 6.23435C16.4126 7.3804 17.05 8.93479 17.05 10.5556C17.05 12.1763 16.4126 13.7307 15.278 14.8768C14.1434 16.0228 12.6046 16.6667 11 16.6667ZM11 14.4444C12.0211 14.4444 13.0003 14.0347 13.7224 13.3054C14.4444 12.5761 14.85 11.587 14.85 10.5556C14.85 9.52416 14.4444 8.535 13.7224 7.8057C13.0003 7.07639 12.0211 6.66667 11 6.66667C9.97892 6.66667 8.99965 7.07639 8.27764 7.8057C7.55562 8.535 7.15 9.52416 7.15 10.5556C7.15 11.587 7.55562 12.5761 8.27764 13.3054C8.99965 14.0347 9.97892 14.4444 11 14.4444Z" fill="#A9A9A9"/>
</svg>
