<svg width="18" height="16" viewBox="0 0 18 16" fill="none" xmlns="http://www.w3.org/2000/svg">
<path d="M1.87952 5.26508L2.95579 14.3402H15.0441L16.1204 5.26508L12.7644 7.48344L8.99995 2.25747L5.23553 7.48344L1.87952 5.26508ZM1.30122 2.88738L4.8154 5.21113L8.3187 0.347846C8.39612 0.240263 8.49833 0.152572 8.61682 0.0920683C8.73531 0.0315651 8.86667 0 8.99995 0C9.13323 0 9.26458 0.0315651 9.38307 0.0920683C9.50156 0.152572 9.60377 0.240263 9.68119 0.347846L13.1845 5.21113L16.6995 2.88738C16.8325 2.79961 16.9881 2.75144 17.1479 2.74856C17.3076 2.74568 17.4649 2.78822 17.601 2.87113C17.7372 2.95404 17.8466 3.07388 17.9163 3.21647C17.9859 3.35906 18.013 3.51845 17.9942 3.6758L16.6192 15.2672C16.5952 15.4691 16.4973 15.6552 16.3441 15.7903C16.191 15.9253 15.9931 16 15.7881 16H2.21178C2.00679 16 1.80894 15.9253 1.65576 15.7903C1.50257 15.6552 1.40471 15.4691 1.38073 15.2672L0.00568401 3.67497C-0.0128954 3.51768 0.0142917 3.35841 0.084036 3.21596C0.15378 3.0735 0.26317 2.9538 0.399292 2.871C0.535413 2.78819 0.692584 2.74573 0.852251 2.74864C1.01192 2.75154 1.16825 2.79968 1.30122 2.88738ZM8.99995 11.0205C8.55602 11.0205 8.13028 10.8456 7.81638 10.5344C7.50248 10.2231 7.32613 9.80091 7.32613 9.3607C7.32613 8.92048 7.50248 8.4983 7.81638 8.18702C8.13028 7.87575 8.55602 7.70087 8.99995 7.70087C9.44387 7.70087 9.86961 7.87575 10.1835 8.18702C10.4974 8.4983 10.6738 8.92048 10.6738 9.3607C10.6738 9.80091 10.4974 10.2231 10.1835 10.5344C9.86961 10.8456 9.44387 11.0205 8.99995 11.0205Z" fill="#00E392"/>
</svg>
