<svg width="40" height="41" viewBox="0 0 40 41" fill="none" xmlns="http://www.w3.org/2000/svg">
<path d="M20 0.0751953C16.0444 0.0751953 12.1776 1.24817 8.8886 3.4458C5.59962 5.64343 3.03617 8.767 1.52242 12.4215C0.00866572 16.076 -0.387401 20.0974 0.384303 23.977C1.15601 27.8566 3.06082 31.4203 5.85787 34.2173C8.65492 37.0144 12.2186 38.9192 16.0982 39.6909C19.9778 40.4626 23.9992 40.0665 27.6537 38.5528C31.3082 37.039 34.4318 34.4756 36.6294 31.1866C38.827 27.8976 40 24.0308 40 20.0752C39.9941 14.7727 37.8851 9.68902 34.1356 5.93957C30.3862 2.19012 25.3025 0.0810925 20 0.0751953ZM20 36.0752C16.8355 36.0752 13.7421 35.1368 11.1109 33.3787C8.4797 31.6206 6.42894 29.1217 5.21794 26.1981C4.00693 23.2745 3.69008 20.0574 4.30744 16.9537C4.92481 13.8501 6.44866 10.9991 8.6863 8.76148C10.9239 6.52384 13.7749 4.99999 16.8786 4.38263C19.9823 3.76527 23.1993 4.08212 26.1229 5.29312C29.0466 6.50412 31.5454 8.55488 33.3035 11.1861C35.0616 13.8173 36 16.9107 36 20.0752C35.9951 24.3172 34.3079 28.384 31.3083 31.3835C28.3088 34.3831 24.242 36.0703 20 36.0752ZM20 10.0752C18.4092 10.0769 16.8841 10.7096 15.7593 11.8345C14.6344 12.9593 14.0017 14.4844 14 16.0752C14 16.6056 14.2107 17.1143 14.5858 17.4894C14.9609 17.8645 15.4696 18.0752 16 18.0752C16.5304 18.0752 17.0391 17.8645 17.4142 17.4894C17.7893 17.1143 18 16.6056 18 16.0752C18 15.6796 18.1173 15.2929 18.3371 14.964C18.5568 14.6352 18.8692 14.3788 19.2346 14.2274C19.6001 14.0761 20.0022 14.0364 20.3902 14.1136C20.7781 14.1908 21.1345 14.3813 21.4142 14.661C21.6939 14.9407 21.8844 15.297 21.9616 15.685C22.0387 16.073 21.9991 16.4751 21.8478 16.8406C21.6964 17.206 21.44 17.5184 21.1111 17.7381C20.7822 17.9579 20.3956 18.0752 20 18.0752C19.4696 18.0752 18.9609 18.2859 18.5858 18.661C18.2107 19.036 18 19.5448 18 20.0752V22.0752C18 22.6056 18.2107 23.1143 18.5858 23.4894C18.9609 23.8645 19.4696 24.0752 20 24.0752C20.5304 24.0752 21.0391 23.8645 21.4142 23.4894C21.7893 23.1143 22 22.6056 22 22.0752V21.7066C23.334 21.2376 24.4589 20.3115 25.1752 19.0923C25.8915 17.8731 26.1531 16.4397 25.9134 15.0461C25.6738 13.6525 24.9485 12.3887 23.8661 11.4788C22.7837 10.5689 21.4141 10.0717 20 10.0752ZM20 26.0752C19.6044 26.0752 19.2178 26.1925 18.8889 26.4122C18.56 26.632 18.3036 26.9444 18.1522 27.3098C18.0009 27.6753 17.9613 28.0774 18.0384 28.4654C18.1156 28.8533 18.3061 29.2097 18.5858 29.4894C18.8655 29.7691 19.2219 29.9596 19.6098 30.0368C19.9978 30.1139 20.3999 30.0743 20.7654 29.9229C21.1308 29.7716 21.4432 29.5152 21.6629 29.1863C21.8827 28.8574 22 28.4707 22 28.0752C22 27.5448 21.7893 27.036 21.4142 26.661C21.0391 26.2859 20.5304 26.0752 20 26.0752Z" fill="#00346F"/>
<path d="M20 10.0752C18.4092 10.077 16.8841 10.7096 15.7593 11.8345C14.6344 12.9593 14.0017 14.4844 14 16.0752C14 16.6056 14.2107 17.1144 14.5858 17.4894C14.9609 17.8645 15.4696 18.0752 16 18.0752C16.5304 18.0752 17.0391 17.8645 17.4142 17.4894C17.7893 17.1144 18 16.6056 18 16.0752C18 15.6796 18.1173 15.293 18.3371 14.9641C18.5568 14.6352 18.8692 14.3788 19.2346 14.2275C19.6001 14.0761 20.0022 14.0365 20.3902 14.1136C20.7781 14.1908 21.1345 14.3813 21.4142 14.661C21.6939 14.9407 21.8844 15.2971 21.9616 15.685C22.0387 16.073 21.9991 16.4751 21.8478 16.8406C21.6964 17.206 21.44 17.5184 21.1111 17.7382C20.7822 17.9579 20.3956 18.0752 20 18.0752C19.4696 18.0752 18.9609 18.2859 18.5858 18.661C18.2107 19.0361 18 19.5448 18 20.0752V22.0752C18 22.6056 18.2107 23.1143 18.5858 23.4894C18.9609 23.8645 19.4696 24.0752 20 24.0752C20.5304 24.0752 21.0391 23.8645 21.4142 23.4894C21.7893 23.1143 22 22.6056 22 22.0752V21.7067C23.334 21.2377 24.4589 20.3115 25.1752 19.0923C25.8915 17.8731 26.1531 16.4397 25.9134 15.0461C25.6738 13.6525 24.9485 12.3887 23.8661 11.4789C22.7837 10.569 21.414 10.0717 20 10.0752ZM20 26.0752C19.6044 26.0752 19.2178 26.1925 18.8889 26.4123C18.56 26.632 18.3036 26.9444 18.1522 27.3098C18.0009 27.6753 17.9613 28.0774 18.0384 28.4654C18.1156 28.8534 18.3061 29.2097 18.5858 29.4894C18.8655 29.7691 19.2219 29.9596 19.6098 30.0368C19.9978 30.1139 20.3999 30.0743 20.7654 29.923C21.1308 29.7716 21.4432 29.5152 21.6629 29.1863C21.8827 28.8575 22 28.4708 22 28.0752C22 27.5448 21.7893 27.0361 21.4142 26.661C21.0391 26.2859 20.5304 26.0752 20 26.0752Z" fill="#00E392"/>
</svg>
