<svg width="14" height="13" viewBox="0 0 14 13" fill="none" xmlns="http://www.w3.org/2000/svg">
<path d="M7.00057 1.07027C8.64484 -0.406007 11.1858 -0.357007 12.7699 1.22986C14.3532 2.81743 14.4078 5.34579 12.9351 6.99496L6.99917 12.9392L1.06468 6.99496C-0.408088 5.34579 -0.352789 2.81323 1.22988 1.22986C2.81535 -0.354907 5.3514 -0.408107 7.00057 1.07027ZM11.7787 2.21894C10.7287 1.16756 9.03474 1.12487 7.93576 2.11185L7.00127 2.95043L6.06609 2.11255C4.96361 1.12417 3.27314 1.16756 2.22036 2.22034C1.17738 3.26332 1.12488 4.93279 2.08597 6.03597L6.99987 10.9576L11.9138 6.03667C12.8756 4.93279 12.8231 3.26543 11.7787 2.21894Z" fill="#37A000"/>
</svg>
