<svg width="69" height="68" viewBox="0 0 69 68" fill="none" xmlns="http://www.w3.org/2000/svg">
<g filter="url(#filter0_d_1527_852)">
<circle cx="34.3945" cy="34" r="14" fill="white"/>
<circle cx="34.3945" cy="34" r="13.5" stroke="#37A000"/>
</g>
<path d="M37.3421 30.4624H40.2895V31.6413H39.1105V39.3045C39.1105 39.4608 39.0484 39.6108 38.9379 39.7213C38.8273 39.8319 38.6774 39.894 38.5211 39.894H30.2684C30.1121 39.894 29.9621 39.8319 29.8516 39.7213C29.7411 39.6108 29.6789 39.4608 29.6789 39.3045V31.6413H28.5V30.4624H31.4474V28.694C31.4474 28.5376 31.5095 28.3877 31.62 28.2771C31.7306 28.1666 31.8805 28.1045 32.0368 28.1045H36.7526C36.909 28.1045 37.0589 28.1666 37.1695 28.2771C37.28 28.3877 37.3421 28.5376 37.3421 28.694V30.4624ZM37.9316 31.6413H30.8579V38.715H37.9316V31.6413ZM32.6263 33.4098H33.8053V36.9466H32.6263V33.4098ZM34.9842 33.4098H36.1632V36.9466H34.9842V33.4098ZM32.6263 29.2834V30.4624H36.1632V29.2834H32.6263Z" fill="#37A000"/>
<defs>
<filter id="filter0_d_1527_852" x="0.394531" y="0" width="68" height="68" filterUnits="userSpaceOnUse" color-interpolation-filters="sRGB">
<feFlood flood-opacity="0" result="BackgroundImageFix"/>
<feColorMatrix in="SourceAlpha" type="matrix" values="0 0 0 0 0 0 0 0 0 0 0 0 0 0 0 0 0 0 127 0" result="hardAlpha"/>
<feOffset/>
<feGaussianBlur stdDeviation="10"/>
<feColorMatrix type="matrix" values="0 0 0 0 0.215686 0 0 0 0 0.627451 0 0 0 0 0 0 0 0 0.2 0"/>
<feBlend mode="normal" in2="BackgroundImageFix" result="effect1_dropShadow_1527_852"/>
<feBlend mode="normal" in="SourceGraphic" in2="effect1_dropShadow_1527_852" result="shape"/>
</filter>
</defs>
</svg>
