<svg width="16" height="16" viewBox="0 0 16 16" fill="none" xmlns="http://www.w3.org/2000/svg">
<path d="M0.868572 4.408C2.25376 1.70489 5.07671 -0.000952543 8.16327 3.99053e-07C10.3633 3.99053e-07 12.2114 0.792 13.6245 2.084L11.2841 4.3784C10.4376 3.5856 9.36163 3.1816 8.16327 3.1816C6.03674 3.1816 4.23674 4.5896 3.59592 6.48C3.43265 6.96 3.33959 7.472 3.33959 8C3.33959 8.528 3.43265 9.04 3.59592 9.52C4.23755 11.4112 6.03674 12.8184 8.16327 12.8184C9.26122 12.8184 10.1959 12.5344 10.9273 12.0544C11.7842 11.5015 12.373 10.6291 12.5567 9.64H8.16327V6.5456H15.8514C15.9478 7.0688 16 7.6144 16 8.1816C16 10.6184 15.1102 12.6696 13.5657 14.0616C12.2155 15.284 10.3673 16 8.16327 16C5.99797 16.0008 3.92111 15.1583 2.39001 13.6578C0.858912 12.1573 -0.000865985 10.122 6.54531e-07 8C6.54531e-07 6.7088 0.315103 5.488 0.868572 4.408Z" fill="white"/>
</svg>
