<svg width="159" height="114" viewBox="0 0 159 114" fill="none" xmlns="http://www.w3.org/2000/svg">
<path d="M114.458 68.8973L44.7212 109.16C40.6607 111.504 35.3696 110.086 33.0252 106.026L4.28105 56.2392C1.93666 52.1786 3.35437 46.8876 7.41496 44.5432L77.1513 4.28091C81.2119 1.93653 86.5029 3.35426 88.8473 7.41485L117.592 57.2013C119.936 61.2618 118.518 66.5529 114.458 68.8973ZM9.99056 49.4119C8.57818 50.2273 8.13042 51.8982 8.94586 53.3106L37.6901 103.097C38.5055 104.509 40.1764 104.957 41.5888 104.142L111.325 63.8794C112.737 63.0639 113.185 61.3931 112.37 59.9807L83.6255 10.1943C82.8101 8.78187 81.1392 8.33419 79.7268 9.14962L9.99056 49.4119Z" fill="#37A000"/>
<path d="M71.7411 46.7082C66.2675 49.8684 59.4814 47.9008 56.4232 42.6038C53.3649 37.3068 55.2306 30.344 60.5276 27.2858C65.8246 24.2276 72.7873 26.0932 75.8456 31.3903C78.9038 36.6873 77.0382 43.65 71.7411 46.7082ZM63.0761 31.7C60.2511 33.3311 59.2809 36.9517 60.912 39.7767C62.543 42.6018 66.1636 43.572 68.9887 41.9409C71.8138 40.3098 72.7839 36.6892 71.1529 33.8641C69.5218 31.0391 65.9012 30.0689 63.0761 31.7Z" fill="#37A000"/>
<path d="M104.782 73.3202L41.8737 58.5535L31.0036 93.551L25.8886 92.0311L38.2038 52.1971L106.023 68.1305L104.782 73.3202Z" fill="#37A000"/>
<path d="M110.149 53.2637L90.2328 50.166L84.3354 66.0483L79.1929 64.0733L86.7668 44.1627L110.935 48.1013L110.149 53.2637Z" fill="#37A000"/>
<rect x="78.0664" y="45.4414" width="64.3326" height="48.4312" rx="3" transform="rotate(-30.2052 78.0664 45.4414)" fill="white"/>
<path d="M151.543 58.2223L106.747 84.0854C104.138 85.5913 100.74 84.6806 99.2338 82.0722L80.7695 50.0912C79.2636 47.4829 80.1743 44.0841 82.7826 42.5781L127.579 16.7151C130.187 15.2092 133.586 16.1199 135.092 18.7282L153.556 50.7092C155.062 53.3176 154.151 56.7164 151.543 58.2223ZM84.4371 45.7056C83.5298 46.2294 83.2422 47.3027 83.766 48.21L102.23 80.191C102.754 81.0983 103.827 81.3858 104.735 80.862L149.531 54.999C150.438 54.4752 150.726 53.4019 150.202 52.4946L131.738 20.5136C131.214 19.6064 130.14 19.3188 129.233 19.8426L84.4371 45.7056Z" fill="#37A000"/>
<path d="M124.116 43.9684C120.6 45.9982 116.241 44.7344 114.277 41.3322C112.313 37.9299 113.511 33.4578 116.913 31.4935C120.315 29.5293 124.788 30.7276 126.752 34.1298C128.716 37.532 127.518 42.0041 124.116 43.9684ZM118.55 34.3287C116.736 35.3764 116.112 37.7018 117.16 39.5164C118.208 41.3309 120.533 41.954 122.348 40.9064C124.162 39.8588 124.785 37.5333 123.738 35.7188C122.69 33.9042 120.365 33.2811 118.55 34.3287Z" fill="#37A000"/>
<path d="M145.305 61.0622L104.9 51.5777L97.9178 74.0563L94.6324 73.0801L102.542 47.495L146.102 57.7289L145.305 61.0622Z" fill="#37A000"/>
<path d="M148.755 48.1786L135.963 46.189L132.175 56.3901L128.872 55.1216L133.737 42.3332L149.26 44.8629L148.755 48.1786Z" fill="#37A000"/>
</svg>
