<svg width="14" height="14" viewBox="0 0 14 14" fill="none" xmlns="http://www.w3.org/2000/svg">
<path d="M3.5 2.8V0.7C3.5 0.514348 3.57375 0.336301 3.70503 0.205025C3.8363 0.0737498 4.01435 0 4.2 0H9.8C9.98565 0 10.1637 0.0737498 10.295 0.205025C10.4263 0.336301 10.5 0.514348 10.5 0.7V2.8H13.3C13.4857 2.8 13.6637 2.87375 13.795 3.00503C13.9263 3.1363 14 3.31435 14 3.5V13.3C14 13.4857 13.9263 13.6637 13.795 13.795C13.6637 13.9263 13.4857 14 13.3 14H0.7C0.514348 14 0.336301 13.9263 0.205025 13.795C0.0737498 13.6637 0 13.4857 0 13.3V3.5C0 3.31435 0.0737498 3.1363 0.205025 3.00503C0.336301 2.87375 0.514348 2.8 0.7 2.8H3.5ZM4.9 8.4H1.4V12.6H12.6V8.4H9.1V10.5H4.9V8.4ZM12.6 4.2H1.4V7H4.9V5.6H9.1V7H12.6V4.2ZM6.3 7V9.1H7.7V7H6.3ZM4.9 1.4V2.8H9.1V1.4H4.9Z" fill="#666869"/>
</svg>
