<svg width="14" height="15" viewBox="0 0 14 15" fill="none" xmlns="http://www.w3.org/2000/svg">
<path d="M0.736842 15C0.541419 15 0.354001 14.921 0.215816 14.7803C0.0776315 14.6397 0 14.4489 0 14.25V0.75C0 0.551088 0.0776315 0.360322 0.215816 0.21967C0.354001 0.0790176 0.541419 0 0.736842 0H11.0526C11.2481 0 11.4355 0.0790176 11.5737 0.21967C11.7118 0.360322 11.7895 0.551088 11.7895 0.75V3H10.3158V1.5H1.47368V13.5H10.3158V12H11.7895V14.25C11.7895 14.4489 11.7118 14.6397 11.5737 14.7803C11.4355 14.921 11.2481 15 11.0526 15H0.736842ZM10.3158 10.5V8.25H5.15789V6.75H10.3158V4.5L14 7.5L10.3158 10.5Z" fill="#696B71"/>
</svg>
