<svg width="14" height="15" viewBox="0 0 14 15" fill="none" xmlns="http://www.w3.org/2000/svg">
<path d="M13.2222 15H0.777778C0.571498 15 0.373667 14.921 0.227806 14.7803C0.0819442 14.6397 0 14.4489 0 14.25V0.75C0 0.551088 0.0819442 0.360322 0.227806 0.21967C0.373667 0.0790176 0.571498 0 0.777778 0H13.2222C13.4285 0 13.6263 0.0790176 13.7722 0.21967C13.9181 0.360322 14 0.551088 14 0.75V14.25C14 14.4489 13.9181 14.6397 13.7722 14.7803C13.6263 14.921 13.4285 15 13.2222 15ZM12.4444 13.5V1.5H1.55556V13.5H12.4444ZM3.88889 3.75H10.1111V5.25H3.88889V3.75ZM3.88889 6.75H10.1111V8.25H3.88889V6.75ZM3.88889 9.75H10.1111V11.25H3.88889V9.75Z" fill="#37A000"/>
</svg>
