<svg width="14" height="16" viewBox="0 0 14 16" fill="none" xmlns="http://www.w3.org/2000/svg">
<path d="M5.97174 9.43525V10.8868C4.78389 10.8868 3.64469 11.3456 2.80475 12.1623C1.96481 12.979 1.49294 14.0866 1.49294 15.2416H0C0 13.7016 0.629164 12.2248 1.74908 11.1359C2.869 10.047 4.38794 9.43525 5.97174 9.43525ZM5.97174 8.70946C3.4972 8.70946 1.49294 6.76072 1.49294 4.35473C1.49294 1.94874 3.4972 0 5.97174 0C8.44628 0 10.4505 1.94874 10.4505 4.35473C10.4505 6.76072 8.44628 8.70946 5.97174 8.70946ZM5.97174 7.25788C7.62143 7.25788 8.95761 5.95872 8.95761 4.35473C8.95761 2.75074 7.62143 1.45158 5.97174 1.45158C4.32205 1.45158 2.98587 2.75074 2.98587 4.35473C2.98587 5.95872 4.32205 7.25788 5.97174 7.25788ZM10.4505 14.8787L8.25668 16L8.67545 13.6252L6.90109 11.9428L9.35399 11.5959L10.4505 9.43525L11.5479 11.5959L14 11.9428L12.2256 13.6252L12.6437 16L10.4505 14.8787Z" fill="#37A000"/>
</svg>
