<svg width="14" height="15" viewBox="0 0 14 15" fill="none" xmlns="http://www.w3.org/2000/svg">
<path d="M0.710313 10.5012C0.403288 9.98953 0.164625 9.44246 0 8.87304C0.358285 8.69741 0.659178 8.42968 0.869393 8.09947C1.07961 7.76926 1.19095 7.38944 1.1911 7.00202C1.19125 6.61461 1.0802 6.23471 0.870244 5.90434C0.660287 5.57398 0.359601 5.30603 0.00145265 5.13014C0.329763 3.98598 0.954877 2.94121 1.81791 2.09424C2.15498 2.30545 2.5461 2.42266 2.948 2.43289C3.3499 2.44312 3.7469 2.34598 4.09507 2.15223C4.44324 1.95847 4.729 1.67564 4.92072 1.33505C5.11244 0.994461 5.20265 0.609387 5.18137 0.222443C6.37402 -0.0746213 7.6255 -0.0741394 8.81791 0.223843C8.79681 0.610779 8.8872 0.995796 9.07907 1.33629C9.27094 1.67678 9.55681 1.95948 9.90504 2.15309C10.2533 2.3467 10.6503 2.44367 11.0522 2.43329C11.4541 2.4229 11.8451 2.30556 12.1821 2.09424C12.6026 2.50724 12.9759 2.97694 13.2897 3.50124C13.6042 4.02554 13.8395 4.57224 14 5.12944C13.6417 5.30507 13.3408 5.5728 13.1306 5.90302C12.9204 6.23323 12.8091 6.61305 12.8089 7.00046C12.8088 7.38788 12.9198 7.76778 13.1298 8.09814C13.3397 8.42851 13.6404 8.69646 13.9985 8.87234C13.6702 10.0165 13.0451 11.0613 12.1821 11.9082C11.845 11.697 11.4539 11.5798 11.052 11.5696C10.6501 11.5594 10.2531 11.6565 9.90493 11.8503C9.55676 12.044 9.271 12.3268 9.07928 12.6674C8.88756 13.008 8.79735 13.3931 8.81863 13.78C7.62598 14.0771 6.3745 14.0766 5.18209 13.7786C5.20319 13.3917 5.1128 13.0067 4.92093 12.6662C4.72906 12.3257 4.44319 12.043 4.09496 11.8494C3.74672 11.6558 3.3497 11.5588 2.94782 11.5692C2.54594 11.5796 2.15488 11.6969 1.81791 11.9082C1.38866 11.4861 1.01651 11.0134 0.710313 10.5012ZM4.82112 10.6384C5.59508 11.0687 6.177 11.7592 6.45528 12.5774C6.8177 12.6103 7.18157 12.611 7.54399 12.5781C7.82245 11.7597 8.40464 11.0693 9.17887 10.6391C9.95253 10.2077 10.8643 10.0669 11.7391 10.2436C11.9497 9.95804 12.1313 9.65354 12.2823 9.33504C11.6863 8.69345 11.3571 7.86239 11.3577 7.00124C11.3577 6.11924 11.6991 5.29534 12.2823 4.66744C12.1302 4.34905 11.9478 4.04489 11.7376 3.75884C10.8634 3.93546 9.95222 3.79488 9.17887 3.36404C8.40492 2.9338 7.823 2.24333 7.54472 1.42504C7.1823 1.39214 6.81843 1.39144 6.45601 1.42434C6.17755 2.24275 5.59535 2.93323 4.82112 3.36334C4.04747 3.79476 3.13575 3.93561 2.26095 3.75884C2.05073 4.04464 1.86884 4.34885 1.71768 4.66744C2.31365 5.30904 2.64289 6.1401 2.64225 7.00124C2.64225 7.88324 2.30089 8.70714 1.71768 9.33504C1.86982 9.65344 2.05217 9.9576 2.2624 10.2436C3.13665 10.067 4.04777 10.2076 4.82112 10.6384ZM7 9.10124C6.42213 9.10124 5.86792 8.87999 5.4593 8.48617C5.05068 8.09234 4.82112 7.5582 4.82112 7.00124C4.82112 6.44429 5.05068 5.91015 5.4593 5.51632C5.86792 5.12249 6.42213 4.90124 7 4.90124C7.57787 4.90124 8.13208 5.12249 8.5407 5.51632C8.94932 5.91015 9.17887 6.44429 9.17887 7.00124C9.17887 7.5582 8.94932 8.09234 8.5407 8.48617C8.13208 8.87999 7.57787 9.10124 7 9.10124ZM7 7.70124C7.19262 7.70124 7.37736 7.62749 7.51357 7.49622C7.64977 7.36494 7.72629 7.18689 7.72629 7.00124C7.72629 6.81559 7.64977 6.63754 7.51357 6.50627C7.37736 6.37499 7.19262 6.30124 7 6.30124C6.80738 6.30124 6.62264 6.37499 6.48643 6.50627C6.35023 6.63754 6.27371 6.81559 6.27371 7.00124C6.27371 7.18689 6.35023 7.36494 6.48643 7.49622C6.62264 7.62749 6.80738 7.70124 7 7.70124Z" fill="#37A000"/>
</svg>
