<svg width="14" height="14" viewBox="0 0 14 14" fill="none" xmlns="http://www.w3.org/2000/svg">
<path d="M3.1185 11.4872L0 14V0.717949C0 0.527537 0.0737498 0.344924 0.205025 0.210282C0.336301 0.0756408 0.514348 0 0.7 0H13.3C13.4857 0 13.6637 0.0756408 13.795 0.210282C13.9263 0.344924 14 0.527537 14 0.717949V10.7692C14 10.9596 13.9263 11.1423 13.795 11.2769C13.6637 11.4115 13.4857 11.4872 13.3 11.4872H3.1185ZM2.6341 10.0513H12.6V1.4359H1.4V11.0456L2.6341 10.0513ZM4.2 5.02564H9.8V6.46154H4.2V5.02564Z" fill="#696B71"/>
</svg>
