<svg width="14" height="16" viewBox="0 0 14 16" fill="none" xmlns="http://www.w3.org/2000/svg">
<path fill-rule="evenodd" clip-rule="evenodd" d="M11.8311 2.52041L8.36522 7.03604C8.12619 7.35617 7.66522 7.42357 7.3579 7.20453L4.7457 5.25001L1.58717 9.36125C1.45058 9.54659 1.22863 9.64769 1.00668 9.64769C0.85302 9.64769 0.699361 9.59714 0.562776 9.49604C0.238386 9.26015 0.187166 8.80522 0.426191 8.48508L4.01156 3.78411C4.25058 3.46397 4.71156 3.41343 5.03595 3.64932L7.64814 5.60384L10.6701 1.64425L9.23595 1.84644C8.84326 1.91383 8.46765 1.6274 8.41643 1.23986C8.34814 0.852326 8.63839 0.48164 9.03107 0.431092L12.2238 0.00985849C12.6164 -0.0575389 12.992 0.2289 13.0433 0.616435L13.4701 3.75041C13.5384 4.13795 13.2481 4.50863 12.8555 4.55918H12.753C12.3945 4.55918 12.0872 4.28959 12.0359 3.93576L11.8311 2.52041ZM0.580488 11.2991H2.91951C3.2439 11.2991 3.5 11.5519 3.5 11.872V15.4272C3.5 15.7474 3.2439 16.0001 2.91951 16.0001H0.580488C0.256097 16.0001 0 15.7474 0 15.4272V11.872C0 11.5519 0.256097 11.2991 0.580488 11.2991ZM8.17877 8.99044H5.82267C5.49828 8.99044 5.24219 9.24318 5.24219 9.56331V15.4269C5.24219 15.747 5.49828 15.9998 5.82267 15.9998H8.1617C8.48609 15.9998 8.74219 15.747 8.74219 15.4269V9.56331C8.75926 9.24318 8.48609 8.99044 8.17877 8.99044ZM11.0805 6.68223H13.4195C13.7439 6.68223 14 6.95182 14 7.27196V15.4102C14 15.7303 13.7439 15.9831 13.4195 15.9831H11.0805C10.7561 15.9831 10.5 15.7303 10.5 15.4102V7.25511C10.5 6.93497 10.7561 6.68223 11.0805 6.68223Z" fill="#37A000"/>
</svg>
