<svg width="14" height="15" viewBox="0 0 14 15" fill="none" xmlns="http://www.w3.org/2000/svg">
<path d="M0 12.375V2.25C0 1.65326 0.245833 1.08097 0.683418 0.65901C1.121 0.237053 1.71449 0 2.33333 0H13.2222C13.4285 0 13.6263 0.0790176 13.7722 0.21967C13.9181 0.360322 14 0.551088 14 0.75V14.25C14 14.4489 13.9181 14.6397 13.7722 14.7803C13.6263 14.921 13.4285 15 13.2222 15H2.72222C2.00024 15 1.30784 14.7234 0.797321 14.2312C0.286805 13.7389 0 13.0712 0 12.375V12.375ZM12.4444 13.5V11.25H2.72222C2.4128 11.25 2.11606 11.3685 1.89726 11.5795C1.67847 11.7905 1.55556 12.0766 1.55556 12.375C1.55556 12.6734 1.67847 12.9595 1.89726 13.1705C2.11606 13.3815 2.4128 13.5 2.72222 13.5H12.4444ZM1.55556 10.0027C1.92009 9.83583 2.31867 9.74948 2.72222 9.75H12.4444V1.5H2.33333C2.12705 1.5 1.92922 1.57902 1.78336 1.71967C1.6375 1.86032 1.55556 2.05109 1.55556 2.25V10.0027Z" fill="#37A000"/>
</svg>
