<svg width="38" height="36" viewBox="0 0 38 36" fill="none" xmlns="http://www.w3.org/2000/svg">
<g filter="url(#filter0_d_3313_2628)">
<path d="M11.8795 11.2651L12.9558 20.3402H25.0441L26.1204 11.2651L22.7644 13.4834L18.9999 8.25747L15.2355 13.4834L11.8795 11.2651ZM11.3012 8.88738L14.8154 11.2111L18.3187 6.34785C18.3961 6.24026 18.4983 6.15257 18.6168 6.09207C18.7353 6.03157 18.8667 6 18.9999 6C19.1332 6 19.2646 6.03157 19.3831 6.09207C19.5016 6.15257 19.6038 6.24026 19.6812 6.34785L23.1845 11.2111L26.6995 8.88738C26.8325 8.79961 26.9881 8.75144 27.1479 8.74856C27.3076 8.74568 27.4649 8.78822 27.601 8.87113C27.7372 8.95404 27.8466 9.07388 27.9163 9.21647C27.9859 9.35906 28.013 9.51845 27.9942 9.6758L26.6192 21.2672C26.5952 21.4691 26.4973 21.6552 26.3441 21.7903C26.191 21.9253 25.9931 22 25.7881 22H12.2118C12.0068 22 11.8089 21.9253 11.6558 21.7903C11.5026 21.6552 11.4047 21.4691 11.3807 21.2672L10.0057 9.67497C9.9871 9.51768 10.0143 9.35841 10.084 9.21596C10.1538 9.0735 10.2632 8.9538 10.3993 8.871C10.5354 8.78819 10.6926 8.74573 10.8523 8.74864C11.0119 8.75154 11.1674 8.79968 11.3004 8.88738H11.3012ZM18.9999 17.0205C18.556 17.0205 18.1303 16.8456 17.8164 16.5344C17.5025 16.2231 17.3261 15.8009 17.3261 15.3607C17.3261 14.9205 17.5025 14.4983 17.8164 14.187C18.1303 13.8757 18.556 13.7009 18.9999 13.7009C19.4439 13.7009 19.8696 13.8757 20.1835 14.187C20.4974 14.4983 20.6738 14.9205 20.6738 15.3607C20.6738 15.8009 20.4974 16.2231 20.1835 16.5344C19.8696 16.8456 19.4439 17.0205 18.9999 17.0205Z" fill="#00E392"/>
</g>
<defs>
<filter id="filter0_d_3313_2628" x="0" y="0" width="38" height="36" filterUnits="userSpaceOnUse" color-interpolation-filters="sRGB">
<feFlood flood-opacity="0" result="BackgroundImageFix"/>
<feColorMatrix in="SourceAlpha" type="matrix" values="0 0 0 0 0 0 0 0 0 0 0 0 0 0 0 0 0 0 127 0" result="hardAlpha"/>
<feOffset dy="4"/>
<feGaussianBlur stdDeviation="5"/>
<feColorMatrix type="matrix" values="0 0 0 0 0 0 0 0 0 0.890196 0 0 0 0 0.572549 0 0 0 0.25 0"/>
<feBlend mode="normal" in2="BackgroundImageFix" result="effect1_dropShadow_3313_2628"/>
<feBlend mode="normal" in="SourceGraphic" in2="effect1_dropShadow_3313_2628" result="shape"/>
</filter>
</defs>
</svg>
