<svg width="17" height="18" viewBox="0 0 17 18" fill="none" xmlns="http://www.w3.org/2000/svg">
<path d="M13.4891 1.63636L17 1.63636L17 3.27273L13.4891 3.27273L13.4891 4.90909L10.9946 4.90909L10.9946 -4.80588e-07L13.4891 -5.89629e-07L13.4891 1.63636ZM13.4891 14.7273L17 14.7273L17 16.3636L13.4891 16.3636L13.4891 18L10.9946 18L10.9946 13.0909L13.4891 13.0909L13.4891 14.7273ZM3.51087 9.81818L-3.57639e-07 9.81818L-4.29166e-07 8.18182L3.51087 8.18182L3.51087 6.54545L6.00543 6.54545L6.00543 11.4545L3.51087 11.4545L3.51087 9.81818ZM7.66848 9.81818L7.66848 8.18182L17 8.18182L17 9.81818L7.66848 9.81818ZM9.33152 16.3636L-7.15277e-08 16.3636L-1.43055e-07 14.7273L9.33152 14.7273L9.33152 16.3636ZM9.33152 3.27273L-6.4375e-07 3.27273L-7.15277e-07 1.63636L9.33152 1.63636L9.33152 3.27273Z" fill="#333333"/>
</svg>
