<svg width="28" height="35" viewBox="0 0 28 35" fill="none" xmlns="http://www.w3.org/2000/svg">
<path d="M27.0143 8.74078L19.3481 0.958904C18.7275 0.331928 17.9244 0 17.0482 0H3.24902C2.37288 0 1.56975 0.331928 0.949153 0.958904C0.328553 1.58588 0 2.39726 0 3.2824V31.7176C0 33.5248 1.46023 35 3.24902 35H24.751C26.5398 35 28 33.5248 28 31.7176V11.0643C28 10.1791 27.6349 9.36775 27.0143 8.74078ZM18.1799 3.8725L24.1669 9.92097H18.8005C18.4355 9.92097 18.1799 9.62592 18.1799 9.29399V3.8725ZM25.1525 31.7545C25.1525 31.9758 24.97 32.1602 24.751 32.1602H3.24902C3.02999 32.1602 2.84746 31.9758 2.84746 31.7545V3.2824C2.84746 3.13488 2.92047 3.02424 2.95697 2.98735C3.02999 2.91359 3.103 2.87671 3.24902 2.87671H15.3325V9.29399C15.3325 11.2487 16.9022 12.7977 18.8005 12.7977H25.116V31.7545H25.1525Z" fill="#37A000"/>
</svg>
