<?xml version="1.0" encoding="UTF-8"?>
<svg xmlns="http://www.w3.org/2000/svg" xmlns:xlink="http://www.w3.org/1999/xlink" width="14px" height="13px" viewBox="0 0 14 13" version="1.1">
<g id="surface1">
<rect x="0" y="0" width="14" height="13" style="fill:rgb(99.607843%,99.607843%,99.607843%);fill-opacity:1;stroke:none;"/>
<path style=" stroke:none;fill-rule:nonzero;fill:rgb(65.490196%,65.882353%,65.882353%);fill-opacity:1;" d="M 4.199219 0.242188 L 4.433594 0.480469 Z M 4.199219 0.242188 "/>
<path style=" stroke:none;fill-rule:nonzero;fill:rgb(41.568627%,42.352941%,42.352941%);fill-opacity:1;" d="M 0.464844 5.535156 L 1.632812 6.257812 C 1.695312 7.769531 1.796875 10.574219 2.898438 11.691406 C 4.03125 12.839844 9.984375 12.816406 11.125 11.691406 C 12.1875 10.644531 12.304688 7.703125 12.367188 6.257812 L 13.535156 5.535156 C 10.195312 5.425781 11.585938 2.492188 10.125 0.847656 C 9.164062 -0.234375 7.511719 0.785156 7.8125 2.15625 C 8.074219 3.347656 10.074219 4.078125 10.734375 5.296875 L 3.265625 5.296875 C 3.925781 4.078125 5.925781 3.347656 6.1875 2.15625 C 6.488281 0.800781 4.824219 -0.285156 3.875 0.828125 C 2.4375 2.507812 3.796875 5.425781 0.464844 5.535156 Z M 0.464844 5.535156 " fill="#37A000" />
<path style=" stroke:none;fill-rule:nonzero;fill:rgb(54.901961%,55.294118%,55.686275%);fill-opacity:1;" d="M 5.132812 0.242188 L 5.367188 0.480469 Z M 5.132812 0.242188 "/>
<path style=" stroke:none;fill-rule:nonzero;fill:rgb(80.392157%,80.784314%,80.784314%);fill-opacity:1;" d="M 5.367188 0.242188 L 5.601562 0.480469 Z M 5.367188 0.242188 "/>
<path style=" stroke:none;fill-rule:nonzero;fill:rgb(65.490196%,65.882353%,65.882353%);fill-opacity:1;" d="M 8.398438 0.242188 L 8.632812 0.480469 Z M 8.398438 0.242188 "/>
<path style=" stroke:none;fill-rule:nonzero;fill:rgb(54.901961%,55.294118%,55.686275%);fill-opacity:1;" d="M 8.632812 0.242188 L 8.867188 0.480469 L 8.632812 0.242188 M 9.332031 0.242188 L 9.566406 0.480469 Z M 9.332031 0.242188 "/>
<path style=" stroke:none;fill-rule:nonzero;fill:rgb(65.490196%,65.882353%,65.882353%);fill-opacity:1;" d="M 9.566406 0.242188 L 9.800781 0.480469 Z M 9.566406 0.242188 "/>
<path style=" stroke:none;fill-rule:nonzero;fill:rgb(80.392157%,80.784314%,80.784314%);fill-opacity:1;" d="M 3.734375 0.480469 L 3.964844 0.722656 L 3.734375 0.480469 M 10.035156 0.480469 L 10.265625 0.722656 L 10.035156 0.480469 M 3.5 0.722656 L 3.734375 0.964844 L 3.5 0.722656 M 10.265625 0.722656 L 10.5 0.964844 Z M 10.265625 0.722656 "/>
<path style=" stroke:none;fill-rule:nonzero;fill:rgb(54.901961%,55.294118%,55.686275%);fill-opacity:1;" d="M 4.820312 1.042969 L 4.976562 1.125 Z M 4.820312 1.042969 "/>
<path style=" stroke:none;fill-rule:nonzero;fill:rgb(65.490196%,65.882353%,65.882353%);fill-opacity:1;" d="M 6.066406 0.964844 L 6.300781 1.203125 L 6.066406 0.964844 M 7.699219 0.964844 L 7.933594 1.203125 Z M 7.699219 0.964844 "/>
<path style=" stroke:none;fill-rule:nonzero;fill:rgb(54.901961%,55.294118%,55.686275%);fill-opacity:1;" d="M 9.023438 1.042969 L 9.179688 1.125 Z M 9.023438 1.042969 "/>
<path style=" stroke:none;fill-rule:nonzero;fill:rgb(80.392157%,80.784314%,80.784314%);fill-opacity:1;" d="M 3.265625 1.203125 L 3.5 1.445312 Z M 3.265625 1.203125 "/>
<path style=" stroke:none;fill-rule:nonzero;fill:rgb(54.901961%,55.294118%,55.686275%);fill-opacity:1;" d="M 4.199219 1.203125 L 4.433594 1.445312 Z M 4.199219 1.203125 "/>
<path style=" stroke:none;fill-rule:nonzero;fill:rgb(99.607843%,99.607843%,99.607843%);fill-opacity:1;" d="M 5.367188 2.40625 C 5.082031 0.648438 3.660156 2.113281 5.367188 2.40625 Z M 5.367188 2.40625 "/>
<path style=" stroke:none;fill-rule:nonzero;fill:rgb(80.392157%,80.784314%,80.784314%);fill-opacity:1;" d="M 5.132812 1.203125 L 5.367188 1.445312 L 5.132812 1.203125 M 8.632812 1.203125 L 8.398438 2.167969 L 8.632812 2.167969 Z M 8.632812 1.203125 "/>
<path style=" stroke:none;fill-rule:nonzero;fill:rgb(99.607843%,99.607843%,99.607843%);fill-opacity:1;" d="M 8.632812 2.40625 C 10.339844 2.113281 8.917969 0.648438 8.632812 2.40625 Z M 8.632812 2.40625 "/>
<path style=" stroke:none;fill-rule:nonzero;fill:rgb(65.490196%,65.882353%,65.882353%);fill-opacity:1;" d="M 9.566406 1.203125 L 9.800781 1.445312 Z M 9.566406 1.203125 "/>
<path style=" stroke:none;fill-rule:nonzero;fill:rgb(80.392157%,80.784314%,80.784314%);fill-opacity:1;" d="M 10.5 1.203125 L 10.734375 1.445312 Z M 10.5 1.203125 "/>
<path style=" stroke:none;fill-rule:nonzero;fill:rgb(54.901961%,55.294118%,55.686275%);fill-opacity:1;" d="M 3.265625 1.445312 L 3.265625 2.167969 L 3.5 2.167969 Z M 3.265625 1.445312 "/>
<path style=" stroke:none;fill-rule:nonzero;fill:rgb(65.490196%,65.882353%,65.882353%);fill-opacity:1;" d="M 5.367188 1.445312 L 5.601562 1.683594 Z M 5.367188 1.445312 "/>
<path style=" stroke:none;fill-rule:nonzero;fill:rgb(80.392157%,80.784314%,80.784314%);fill-opacity:1;" d="M 6.300781 1.445312 L 6.300781 2.167969 L 6.535156 2.167969 L 6.300781 1.445312 M 7.464844 1.445312 L 7.464844 2.167969 L 7.699219 2.167969 Z M 7.464844 1.445312 "/>
<path style=" stroke:none;fill-rule:nonzero;fill:rgb(65.490196%,65.882353%,65.882353%);fill-opacity:1;" d="M 10.5 1.445312 L 10.734375 1.683594 Z M 10.5 1.445312 "/>
<path style=" stroke:none;fill-rule:nonzero;fill:rgb(80.392157%,80.784314%,80.784314%);fill-opacity:1;" d="M 5.445312 1.84375 L 5.523438 2.007812 Z M 5.445312 1.84375 "/>
<path style=" stroke:none;fill-rule:nonzero;fill:rgb(54.901961%,55.294118%,55.686275%);fill-opacity:1;" d="M 10.578125 1.84375 L 10.65625 2.007812 Z M 10.578125 1.84375 "/>
<path style=" stroke:none;fill-rule:nonzero;fill:rgb(65.490196%,65.882353%,65.882353%);fill-opacity:1;" d="M 3.265625 2.167969 L 3.5 2.40625 L 3.265625 2.167969 M 4.199219 2.167969 L 4.433594 2.40625 L 4.199219 2.167969 M 9.566406 2.167969 L 9.800781 2.40625 Z M 9.566406 2.167969 "/>
<path style=" stroke:none;fill-rule:nonzero;fill:rgb(80.392157%,80.784314%,80.784314%);fill-opacity:1;" d="M 10.5 2.167969 L 10.734375 2.40625 Z M 10.5 2.167969 "/>
<path style=" stroke:none;fill-rule:nonzero;fill:rgb(54.901961%,55.294118%,55.686275%);fill-opacity:1;" d="M 4.433594 2.40625 L 4.667969 2.648438 Z M 4.433594 2.40625 "/>
<path style=" stroke:none;fill-rule:nonzero;fill:rgb(80.392157%,80.784314%,80.784314%);fill-opacity:1;" d="M 4.667969 2.40625 L 4.898438 2.648438 Z M 4.667969 2.40625 "/>
<path style=" stroke:none;fill-rule:nonzero;fill:rgb(65.490196%,65.882353%,65.882353%);fill-opacity:1;" d="M 4.898438 2.40625 L 5.132812 2.648438 L 4.898438 2.40625 M 6.066406 2.40625 L 6.300781 2.648438 Z M 6.066406 2.40625 "/>
<path style=" stroke:none;fill-rule:nonzero;fill:rgb(54.901961%,55.294118%,55.686275%);fill-opacity:1;" d="M 7.699219 2.40625 L 7.933594 2.648438 Z M 7.699219 2.40625 "/>
<path style=" stroke:none;fill-rule:nonzero;fill:rgb(65.490196%,65.882353%,65.882353%);fill-opacity:1;" d="M 9.023438 2.488281 L 9.179688 2.566406 Z M 9.023438 2.488281 "/>
<path style=" stroke:none;fill-rule:nonzero;fill:rgb(54.901961%,55.294118%,55.686275%);fill-opacity:1;" d="M 9.332031 2.40625 L 9.566406 2.648438 Z M 9.332031 2.40625 "/>
<path style=" stroke:none;fill-rule:nonzero;fill:rgb(80.392157%,80.784314%,80.784314%);fill-opacity:1;" d="M 3.578125 2.808594 L 3.65625 2.96875 L 3.578125 2.808594 M 10.34375 2.808594 L 10.421875 2.96875 L 10.34375 2.808594 M 5.832031 2.890625 L 6.066406 3.128906 L 5.832031 2.890625 M 7.933594 2.890625 L 8.167969 3.128906 Z M 7.933594 2.890625 "/>
<path style=" stroke:none;fill-rule:nonzero;fill:rgb(65.490196%,65.882353%,65.882353%);fill-opacity:1;" d="M 5.367188 3.128906 L 5.601562 3.371094 L 5.367188 3.128906 M 8.398438 3.128906 L 8.632812 3.371094 L 8.398438 3.128906 M 3.265625 3.371094 L 3.5 3.609375 L 3.265625 3.371094 M 4.199219 3.371094 L 4.433594 3.609375 Z M 4.199219 3.371094 "/>
<path style=" stroke:none;fill-rule:nonzero;fill:rgb(54.901961%,55.294118%,55.686275%);fill-opacity:1;" d="M 9.566406 3.371094 L 9.800781 3.609375 Z M 9.566406 3.371094 "/>
<path style=" stroke:none;fill-rule:nonzero;fill:rgb(65.490196%,65.882353%,65.882353%);fill-opacity:1;" d="M 10.5 3.371094 L 10.734375 3.609375 Z M 10.5 3.371094 "/>
<path style=" stroke:none;fill-rule:nonzero;fill:rgb(80.392157%,80.784314%,80.784314%);fill-opacity:1;" d="M 3.035156 3.609375 L 3.265625 3.851562 L 3.035156 3.609375 M 10.734375 3.609375 L 10.964844 3.851562 L 10.734375 3.609375 M 3.964844 3.851562 L 4.199219 4.09375 L 3.964844 3.851562 M 9.800781 3.851562 L 10.035156 4.09375 Z M 9.800781 3.851562 "/>
<path style=" stroke:none;fill-rule:nonzero;fill:rgb(65.490196%,65.882353%,65.882353%);fill-opacity:1;" d="M 2.800781 4.09375 L 3.035156 4.332031 L 2.800781 4.09375 M 3.734375 4.09375 L 3.964844 4.332031 Z M 3.734375 4.09375 "/>
<path style=" stroke:none;fill-rule:nonzero;fill:rgb(54.901961%,55.294118%,55.686275%);fill-opacity:1;" d="M 10.035156 4.09375 L 10.265625 4.332031 Z M 10.035156 4.09375 "/>
<path style=" stroke:none;fill-rule:nonzero;fill:rgb(65.490196%,65.882353%,65.882353%);fill-opacity:1;" d="M 10.964844 4.09375 L 11.199219 4.332031 Z M 10.964844 4.09375 "/>
<path style=" stroke:none;fill-rule:nonzero;fill:rgb(80.392157%,80.784314%,80.784314%);fill-opacity:1;" d="M 2.566406 4.332031 L 2.800781 4.574219 L 2.566406 4.332031 M 11.199219 4.332031 L 11.433594 4.574219 L 11.199219 4.332031 M 3.5 4.574219 L 3.734375 4.816406 L 3.5 4.574219 M 10.265625 4.574219 L 10.5 4.816406 Z M 10.265625 4.574219 "/>
<path style=" stroke:none;fill-rule:nonzero;fill:rgb(65.490196%,65.882353%,65.882353%);fill-opacity:1;" d="M 2.332031 4.816406 L 2.566406 5.054688 L 2.332031 4.816406 M 3.265625 4.816406 L 3.5 5.054688 Z M 3.265625 4.816406 "/>
<path style=" stroke:none;fill-rule:nonzero;fill:rgb(54.901961%,55.294118%,55.686275%);fill-opacity:1;" d="M 10.5 4.816406 L 10.734375 5.054688 Z M 10.5 4.816406 "/>
<path style=" stroke:none;fill-rule:nonzero;fill:rgb(65.490196%,65.882353%,65.882353%);fill-opacity:1;" d="M 11.433594 4.816406 L 11.667969 5.054688 Z M 11.433594 4.816406 "/>
<path style=" stroke:none;fill-rule:nonzero;fill:rgb(80.392157%,80.784314%,80.784314%);fill-opacity:1;" d="M 2.101562 5.054688 L 2.332031 5.296875 L 2.101562 5.054688 M 11.667969 5.054688 L 11.898438 5.296875 L 11.667969 5.054688 M 0.464844 5.296875 L 0.699219 5.535156 Z M 0.464844 5.296875 "/>
<path style=" stroke:none;fill-rule:nonzero;fill:rgb(54.901961%,55.294118%,55.686275%);fill-opacity:1;" d="M 0.699219 5.296875 L 0.699219 5.535156 L 2.101562 5.535156 L 0.699219 5.296875 M 11.898438 5.296875 L 11.898438 5.535156 L 13.300781 5.535156 Z M 11.898438 5.296875 "/>
<path style=" stroke:none;fill-rule:nonzero;fill:rgb(80.392157%,80.784314%,80.784314%);fill-opacity:1;" d="M 13.300781 5.296875 L 13.535156 5.535156 L 13.300781 5.296875 M 0.464844 6.019531 L 0.699219 6.257812 Z M 0.464844 6.019531 "/>
<path style=" stroke:none;fill-rule:nonzero;fill:rgb(54.901961%,55.294118%,55.686275%);fill-opacity:1;" d="M 0.699219 6.019531 L 0.933594 6.257812 L 0.699219 6.019531 M 13.066406 6.019531 L 13.300781 6.257812 Z M 13.066406 6.019531 "/>
<path style=" stroke:none;fill-rule:nonzero;fill:rgb(80.392157%,80.784314%,80.784314%);fill-opacity:1;" d="M 13.300781 6.019531 L 13.535156 6.257812 Z M 13.300781 6.019531 "/>
<path style=" stroke:none;fill-rule:nonzero;fill:rgb(65.490196%,65.882353%,65.882353%);fill-opacity:1;" d="M 1.398438 6.257812 L 1.632812 6.5 Z M 1.398438 6.257812 "/>
<path style=" stroke:none;fill-rule:nonzero;fill:rgb(99.607843%,99.607843%,99.607843%);fill-opacity:1;" d="M 2.332031 6.257812 C 2.628906 7.503906 2.546875 9.996094 3.441406 10.929688 C 4.234375 11.761719 9.765625 11.761719 10.558594 10.929688 C 11.441406 10.007812 11.355469 7.496094 11.667969 6.257812 Z M 2.332031 6.257812 "/>
<path style=" stroke:none;fill-rule:nonzero;fill:rgb(65.490196%,65.882353%,65.882353%);fill-opacity:1;" d="M 12.367188 6.257812 L 12.601562 6.5 Z M 12.367188 6.257812 "/>
<path style=" stroke:none;fill-rule:nonzero;fill:rgb(80.392157%,80.784314%,80.784314%);fill-opacity:1;" d="M 1.476562 6.660156 L 1.554688 6.820312 L 1.476562 6.660156 M 2.410156 6.660156 L 2.488281 6.820312 L 2.410156 6.660156 M 11.511719 6.660156 L 11.589844 6.820312 L 11.511719 6.660156 M 12.445312 6.660156 L 12.523438 6.820312 Z M 12.445312 6.660156 "/>
<path style=" stroke:none;fill-rule:nonzero;fill:rgb(65.490196%,65.882353%,65.882353%);fill-opacity:1;" d="M 2.332031 6.980469 L 2.566406 7.222656 Z M 2.332031 6.980469 "/>
<path style=" stroke:none;fill-rule:nonzero;fill:rgb(80.392157%,80.784314%,80.784314%);fill-opacity:1;" d="M 4.667969 6.980469 L 4.898438 7.222656 Z M 4.667969 6.980469 "/>
<path style=" stroke:none;fill-rule:nonzero;fill:rgb(65.490196%,65.882353%,65.882353%);fill-opacity:1;" d="M 4.898438 6.980469 L 5.132812 7.222656 Z M 4.898438 6.980469 "/>
<path style=" stroke:none;fill-rule:nonzero;fill:rgb(80.392157%,80.784314%,80.784314%);fill-opacity:1;" d="M 5.132812 6.980469 L 5.601562 7.464844 Z M 5.132812 6.980469 "/>
<path style=" stroke:none;fill-rule:nonzero;fill:rgb(65.490196%,65.882353%,65.882353%);fill-opacity:1;" d="M 6.535156 7.222656 L 6.535156 7.464844 L 7.464844 7.464844 Z M 6.535156 7.222656 "/>
<path style=" stroke:none;fill-rule:nonzero;fill:rgb(80.392157%,80.784314%,80.784314%);fill-opacity:1;" d="M 8.632812 6.980469 L 8.867188 7.222656 Z M 8.632812 6.980469 "/>
<path style=" stroke:none;fill-rule:nonzero;fill:rgb(65.490196%,65.882353%,65.882353%);fill-opacity:1;" d="M 8.867188 6.980469 L 9.101562 7.222656 Z M 8.867188 6.980469 "/>
<path style=" stroke:none;fill-rule:nonzero;fill:rgb(80.392157%,80.784314%,80.784314%);fill-opacity:1;" d="M 9.101562 6.980469 L 9.332031 7.222656 Z M 9.101562 6.980469 "/>
<path style=" stroke:none;fill-rule:nonzero;fill:rgb(65.490196%,65.882353%,65.882353%);fill-opacity:1;" d="M 11.433594 6.980469 L 11.667969 7.222656 Z M 11.433594 6.980469 "/>
<path style=" stroke:none;fill-rule:nonzero;fill:rgb(54.901961%,55.294118%,55.686275%);fill-opacity:1;" d="M 2.332031 7.222656 L 2.566406 7.464844 Z M 2.332031 7.222656 "/>
<path style=" stroke:none;fill-rule:nonzero;fill:rgb(41.568627%,42.352941%,42.352941%);fill-opacity:1;" d="M 4.667969 7.222656 L 4.667969 10.59375 L 5.367188 10.59375 L 5.367188 7.222656 L 4.667969 7.222656 M 6.765625 7.222656 C 6.453125 8.3125 6.203125 9.902344 7.234375 10.59375 L 7.234375 7.222656 L 6.765625 7.222656 M 8.632812 7.222656 L 8.632812 10.59375 L 9.332031 10.59375 L 9.332031 7.222656 Z M 8.632812 7.222656 "/>
<path style=" stroke:none;fill-rule:nonzero;fill:rgb(54.901961%,55.294118%,55.686275%);fill-opacity:1;" d="M 11.433594 7.222656 L 11.667969 7.464844 L 11.433594 7.222656 M 1.632812 7.464844 L 1.867188 7.703125 Z M 1.632812 7.464844 "/>
<path style=" stroke:none;fill-rule:nonzero;fill:rgb(65.490196%,65.882353%,65.882353%);fill-opacity:1;" d="M 5.367188 7.464844 L 5.367188 10.351562 L 5.601562 10.351562 Z M 5.367188 7.464844 "/>
<path style=" stroke:none;fill-rule:nonzero;fill:rgb(54.901961%,55.294118%,55.686275%);fill-opacity:1;" d="M 7.234375 7.464844 L 7.234375 10.351562 L 7.464844 10.351562 Z M 7.234375 7.464844 "/>
<path style=" stroke:none;fill-rule:nonzero;fill:rgb(80.392157%,80.784314%,80.784314%);fill-opacity:1;" d="M 8.398438 7.464844 L 8.398438 10.351562 L 8.632812 10.351562 L 8.398438 7.464844 M 9.332031 7.464844 L 9.332031 10.351562 L 9.566406 10.351562 Z M 9.332031 7.464844 "/>
<path style=" stroke:none;fill-rule:nonzero;fill:rgb(54.901961%,55.294118%,55.686275%);fill-opacity:1;" d="M 12.132812 7.464844 L 12.367188 7.703125 Z M 12.132812 7.464844 "/>
<path style=" stroke:none;fill-rule:nonzero;fill:rgb(65.490196%,65.882353%,65.882353%);fill-opacity:1;" d="M 1.632812 7.703125 L 1.867188 7.945312 Z M 1.632812 7.703125 "/>
<path style=" stroke:none;fill-rule:nonzero;fill:rgb(80.392157%,80.784314%,80.784314%);fill-opacity:1;" d="M 11.277344 7.863281 L 11.355469 8.023438 Z M 11.277344 7.863281 "/>
<path style=" stroke:none;fill-rule:nonzero;fill:rgb(65.490196%,65.882353%,65.882353%);fill-opacity:1;" d="M 12.132812 7.703125 L 12.367188 7.945312 Z M 12.132812 7.703125 "/>
<path style=" stroke:none;fill-rule:nonzero;fill:rgb(80.392157%,80.784314%,80.784314%);fill-opacity:1;" d="M 1.710938 8.105469 L 1.789062 8.265625 L 1.710938 8.105469 M 2.644531 8.105469 L 2.722656 8.265625 L 2.644531 8.105469 M 12.210938 8.105469 L 12.289062 8.265625 Z M 12.210938 8.105469 "/>
<path style=" stroke:none;fill-rule:nonzero;fill:rgb(65.490196%,65.882353%,65.882353%);fill-opacity:1;" d="M 11.199219 8.183594 L 11.433594 8.425781 L 11.199219 8.183594 M 2.566406 8.425781 L 2.800781 8.667969 Z M 2.566406 8.425781 "/>
<path style=" stroke:none;fill-rule:nonzero;fill:rgb(54.901961%,55.294118%,55.686275%);fill-opacity:1;" d="M 11.277344 8.585938 L 11.355469 8.746094 L 11.277344 8.585938 M 11.976562 8.828125 L 12.054688 8.988281 Z M 11.976562 8.828125 "/>
<path style=" stroke:none;fill-rule:nonzero;fill:rgb(65.490196%,65.882353%,65.882353%);fill-opacity:1;" d="M 1.867188 8.90625 L 2.101562 9.148438 Z M 1.867188 8.90625 "/>
<path style=" stroke:none;fill-rule:nonzero;fill:rgb(80.392157%,80.784314%,80.784314%);fill-opacity:1;" d="M 1.945312 9.308594 L 2.023438 9.46875 L 1.945312 9.308594 M 2.878906 9.308594 L 2.957031 9.46875 L 2.878906 9.308594 M 11.042969 9.308594 L 11.121094 9.46875 Z M 11.042969 9.308594 "/>
<path style=" stroke:none;fill-rule:nonzero;fill:rgb(65.490196%,65.882353%,65.882353%);fill-opacity:1;" d="M 11.898438 9.148438 L 12.132812 9.390625 Z M 11.898438 9.148438 "/>
<path style=" stroke:none;fill-rule:nonzero;fill:rgb(80.392157%,80.784314%,80.784314%);fill-opacity:1;" d="M 11.976562 9.550781 L 12.054688 9.710938 Z M 11.976562 9.550781 "/>
<path style=" stroke:none;fill-rule:nonzero;fill:rgb(65.490196%,65.882353%,65.882353%);fill-opacity:1;" d="M 2.800781 9.628906 L 3.035156 9.871094 L 2.800781 9.628906 M 10.964844 9.628906 L 11.199219 9.871094 Z M 10.964844 9.628906 "/>
<path style=" stroke:none;fill-rule:nonzero;fill:rgb(54.901961%,55.294118%,55.686275%);fill-opacity:1;" d="M 2.800781 9.871094 L 3.035156 10.109375 L 2.800781 9.871094 M 10.964844 9.871094 L 11.199219 10.109375 L 10.964844 9.871094 M 2.101562 10.109375 L 2.332031 10.351562 L 2.101562 10.109375 M 11.667969 10.109375 L 11.898438 10.351562 Z M 11.667969 10.109375 "/>
<path style=" stroke:none;fill-rule:nonzero;fill:rgb(65.490196%,65.882353%,65.882353%);fill-opacity:1;" d="M 2.101562 10.351562 L 2.332031 10.59375 L 2.101562 10.351562 M 6.535156 10.351562 L 6.765625 10.59375 L 6.535156 10.351562 M 7.234375 10.351562 L 7.464844 10.59375 L 7.234375 10.351562 M 11.667969 10.351562 L 11.898438 10.59375 Z M 11.667969 10.351562 "/>
<path style=" stroke:none;fill-rule:nonzero;fill:rgb(80.392157%,80.784314%,80.784314%);fill-opacity:1;" d="M 2.179688 10.753906 L 2.253906 10.914062 L 2.179688 10.753906 M 3.035156 10.59375 L 3.265625 10.832031 L 3.035156 10.59375 M 5.054688 10.671875 L 5.210938 10.753906 L 5.054688 10.671875 M 6.921875 10.671875 L 7.078125 10.753906 L 6.921875 10.671875 M 8.867188 10.59375 L 9.101562 10.832031 L 8.867188 10.59375 M 10.734375 10.59375 L 10.964844 10.832031 L 10.734375 10.59375 M 11.746094 10.753906 L 11.820312 10.914062 Z M 11.746094 10.753906 "/>
<path style=" stroke:none;fill-rule:nonzero;fill:rgb(54.901961%,55.294118%,55.686275%);fill-opacity:1;" d="M 3.035156 10.832031 L 3.265625 11.074219 Z M 3.035156 10.832031 "/>
<path style=" stroke:none;fill-rule:nonzero;fill:rgb(65.490196%,65.882353%,65.882353%);fill-opacity:1;" d="M 10.734375 10.832031 L 10.964844 11.074219 Z M 10.734375 10.832031 "/>
<path style=" stroke:none;fill-rule:nonzero;fill:rgb(54.901961%,55.294118%,55.686275%);fill-opacity:1;" d="M 2.332031 11.074219 L 2.566406 11.316406 Z M 2.332031 11.074219 "/>
<path style=" stroke:none;fill-rule:nonzero;fill:rgb(65.490196%,65.882353%,65.882353%);fill-opacity:1;" d="M 3.265625 11.074219 L 3.5 11.316406 L 3.265625 11.074219 M 10.5 11.074219 L 10.734375 11.316406 Z M 10.5 11.074219 "/>
<path style=" stroke:none;fill-rule:nonzero;fill:rgb(80.392157%,80.784314%,80.784314%);fill-opacity:1;" d="M 2.332031 11.316406 L 2.566406 11.554688 Z M 2.332031 11.316406 "/>
<path style=" stroke:none;fill-rule:nonzero;fill:rgb(54.901961%,55.294118%,55.686275%);fill-opacity:1;" d="M 3.5 11.316406 L 3.734375 11.554688 Z M 3.5 11.316406 "/>
<path style=" stroke:none;fill-rule:nonzero;fill:rgb(80.392157%,80.784314%,80.784314%);fill-opacity:1;" d="M 3.734375 11.316406 L 3.734375 11.554688 L 10.265625 11.554688 Z M 3.734375 11.316406 "/>
<path style=" stroke:none;fill-rule:nonzero;fill:rgb(54.901961%,55.294118%,55.686275%);fill-opacity:1;" d="M 10.265625 11.316406 L 10.5 11.554688 Z M 10.265625 11.316406 "/>
<path style=" stroke:none;fill-rule:nonzero;fill:rgb(80.392157%,80.784314%,80.784314%);fill-opacity:1;" d="M 11.433594 11.316406 L 11.667969 11.554688 Z M 11.433594 11.316406 "/>
<path style=" stroke:none;fill-rule:nonzero;fill:rgb(65.490196%,65.882353%,65.882353%);fill-opacity:1;" d="M 2.566406 11.554688 L 2.800781 11.796875 L 2.566406 11.554688 M 11.199219 11.554688 L 11.433594 11.796875 L 11.199219 11.554688 M 2.800781 11.796875 L 3.035156 12.035156 L 2.800781 11.796875 M 10.964844 11.796875 L 11.199219 12.035156 Z M 10.964844 11.796875 "/>
<path style=" stroke:none;fill-rule:nonzero;fill:rgb(80.392157%,80.784314%,80.784314%);fill-opacity:1;" d="M 3.035156 12.035156 L 3.265625 12.277344 Z M 3.035156 12.035156 "/>
<path style=" stroke:none;fill-rule:nonzero;fill:rgb(54.901961%,55.294118%,55.686275%);fill-opacity:1;" d="M 3.265625 12.035156 L 3.5 12.277344 L 3.265625 12.035156 M 10.5 12.035156 L 10.734375 12.277344 Z M 10.5 12.035156 "/>
<path style=" stroke:none;fill-rule:nonzero;fill:rgb(80.392157%,80.784314%,80.784314%);fill-opacity:1;" d="M 10.734375 12.035156 L 10.964844 12.277344 L 10.734375 12.035156 M 3.734375 12.277344 L 3.734375 12.519531 L 10.265625 12.519531 Z M 3.734375 12.277344 "/>
</g>
</svg>
