<?xml version="1.0" encoding="UTF-8"?>
<svg xmlns="http://www.w3.org/2000/svg" xmlns:xlink="http://www.w3.org/1999/xlink" width="14px" height="13px" viewBox="0 0 13 13" version="1.1">
<g id="surface1">
<rect x="0" y="0" width="13" height="13" style="fill:rgb(99.607843%,99.607843%,99.215686%);fill-opacity:1;stroke:none;"/>
<path style=" stroke:none;fill-rule:nonzero;fill:rgb(68.627451%,85.098039%,60%);fill-opacity:1;" d="M 4.085938 1.183594 L 3.714844 1.96875 Z M 4.085938 1.183594 "/>
<path style=" stroke:none;fill-rule:nonzero;fill:rgb(24.313725%,64.313725%,3.529412%);fill-opacity:1;" d="M 1.484375 5.515625 L 1.484375 5.910156 C 2.6875 7.152344 2.359375 8.777344 3.320312 10.117188 C 4.304688 11.492188 8.65625 11.578125 9.808594 10.398438 C 10.976562 9.207031 10.644531 7.183594 11.886719 5.910156 L 11.886719 5.515625 C 9.753906 4.847656 9.699219 3.113281 8.914062 1.183594 L 7.429688 3.546875 L 9.65625 5.515625 L 3.714844 5.515625 L 5.941406 3.546875 C 5.597656 -1.148438 3.179688 4.984375 1.484375 5.515625 Z M 1.484375 5.515625 "/>
<path style=" stroke:none;fill-rule:nonzero;fill:rgb(77.647059%,89.019608%,70.980392%);fill-opacity:1;" d="M 5.570312 1.183594 L 5.941406 1.574219 L 5.570312 1.183594 M 7.429688 1.183594 L 7.800781 1.574219 Z M 7.429688 1.183594 "/>
<path style=" stroke:none;fill-rule:nonzero;fill:rgb(50.196078%,76.470588%,36.470588%);fill-opacity:1;" d="M 7.800781 1.183594 L 8.171875 1.574219 Z M 7.800781 1.183594 "/>
<path style=" stroke:none;fill-rule:nonzero;fill:rgb(68.627451%,85.098039%,60%);fill-opacity:1;" d="M 8.914062 1.183594 L 9.285156 1.574219 Z M 8.914062 1.183594 "/>
<path style=" stroke:none;fill-rule:nonzero;fill:rgb(77.647059%,89.019608%,70.980392%);fill-opacity:1;" d="M 5.941406 1.574219 L 6.3125 1.96875 L 5.941406 1.574219 M 9.285156 1.574219 L 9.65625 1.96875 Z M 9.285156 1.574219 "/>
<path style=" stroke:none;fill-rule:nonzero;fill:rgb(50.196078%,76.470588%,36.470588%);fill-opacity:1;" d="M 3.714844 1.96875 L 4.085938 2.363281 Z M 3.714844 1.96875 "/>
<path style=" stroke:none;fill-rule:nonzero;fill:rgb(77.647059%,89.019608%,70.980392%);fill-opacity:1;" d="M 4.457031 1.96875 L 4.828125 2.363281 Z M 4.457031 1.96875 "/>
<path style=" stroke:none;fill-rule:nonzero;fill:rgb(99.607843%,99.607843%,99.215686%);fill-opacity:1;" d="M 4.828125 1.96875 L 4.457031 2.757812 L 5.199219 2.757812 Z M 4.828125 1.96875 "/>
<path style=" stroke:none;fill-rule:nonzero;fill:rgb(68.627451%,85.098039%,60%);fill-opacity:1;" d="M 5.199219 1.96875 L 5.570312 2.363281 Z M 5.199219 1.96875 "/>
<path style=" stroke:none;fill-rule:nonzero;fill:rgb(50.196078%,76.470588%,36.470588%);fill-opacity:1;" d="M 6.066406 2.230469 L 6.191406 2.496094 L 6.066406 2.230469 M 7.179688 2.230469 L 7.304688 2.496094 Z M 7.179688 2.230469 "/>
<path style=" stroke:none;fill-rule:nonzero;fill:rgb(68.627451%,85.098039%,60%);fill-opacity:1;" d="M 7.800781 1.96875 L 8.171875 2.363281 Z M 7.800781 1.96875 "/>
<path style=" stroke:none;fill-rule:nonzero;fill:rgb(99.607843%,99.607843%,99.215686%);fill-opacity:1;" d="M 7.800781 2.757812 L 8.914062 1.96875 Z M 7.800781 2.757812 "/>
<path style=" stroke:none;fill-rule:nonzero;fill:rgb(50.196078%,76.470588%,36.470588%);fill-opacity:1;" d="M 9.285156 1.96875 L 9.65625 2.363281 Z M 9.285156 1.96875 "/>
<path style=" stroke:none;fill-rule:nonzero;fill:rgb(77.647059%,89.019608%,70.980392%);fill-opacity:1;" d="M 5.199219 2.363281 L 4.828125 3.152344 Z M 5.199219 2.363281 "/>
<path style=" stroke:none;fill-rule:nonzero;fill:rgb(50.196078%,76.470588%,36.470588%);fill-opacity:1;" d="M 3.714844 2.757812 L 4.085938 3.152344 Z M 3.714844 2.757812 "/>
<path style=" stroke:none;fill-rule:nonzero;fill:rgb(68.627451%,85.098039%,60%);fill-opacity:1;" d="M 4.457031 2.757812 L 4.828125 3.152344 Z M 4.457031 2.757812 "/>
<path style=" stroke:none;fill-rule:nonzero;fill:rgb(50.196078%,76.470588%,36.470588%);fill-opacity:1;" d="M 5.199219 2.757812 L 5.570312 3.152344 Z M 5.199219 2.757812 "/>
<path style=" stroke:none;fill-rule:nonzero;fill:rgb(68.627451%,85.098039%,60%);fill-opacity:1;" d="M 5.941406 2.757812 L 6.3125 3.152344 L 5.941406 2.757812 M 7.058594 2.757812 L 7.429688 3.152344 Z M 7.058594 2.757812 "/>
<path style=" stroke:none;fill-rule:nonzero;fill:rgb(50.196078%,76.470588%,36.470588%);fill-opacity:1;" d="M 7.800781 2.757812 L 8.171875 3.152344 Z M 7.800781 2.757812 "/>
<path style=" stroke:none;fill-rule:nonzero;fill:rgb(77.647059%,89.019608%,70.980392%);fill-opacity:1;" d="M 8.171875 2.757812 L 8.542969 3.152344 Z M 8.171875 2.757812 "/>
<path style=" stroke:none;fill-rule:nonzero;fill:rgb(50.196078%,76.470588%,36.470588%);fill-opacity:1;" d="M 8.542969 2.757812 L 8.914062 3.152344 L 8.542969 2.757812 M 9.285156 2.757812 L 9.65625 3.152344 Z M 9.285156 2.757812 "/>
<path style=" stroke:none;fill-rule:nonzero;fill:rgb(77.647059%,89.019608%,70.980392%);fill-opacity:1;" d="M 3.714844 3.152344 L 4.085938 3.546875 L 3.714844 3.152344 M 9.285156 3.152344 L 9.65625 3.546875 Z M 9.285156 3.152344 "/>
<path style=" stroke:none;fill-rule:nonzero;fill:rgb(50.196078%,76.470588%,36.470588%);fill-opacity:1;" d="M 3.714844 3.546875 L 4.085938 3.9375 L 3.714844 3.546875 M 4.457031 3.546875 L 4.828125 3.9375 Z M 4.457031 3.546875 "/>
<path style=" stroke:none;fill-rule:nonzero;fill:rgb(68.627451%,85.098039%,60%);fill-opacity:1;" d="M 4.828125 3.546875 L 5.199219 3.9375 Z M 4.828125 3.546875 "/>
<path style=" stroke:none;fill-rule:nonzero;fill:rgb(77.647059%,89.019608%,70.980392%);fill-opacity:1;" d="M 5.199219 3.546875 L 5.570312 3.9375 Z M 5.199219 3.546875 "/>
<path style=" stroke:none;fill-rule:nonzero;fill:rgb(68.627451%,85.098039%,60%);fill-opacity:1;" d="M 8.046875 3.675781 L 8.296875 3.808594 Z M 8.046875 3.675781 "/>
<path style=" stroke:none;fill-rule:nonzero;fill:rgb(50.196078%,76.470588%,36.470588%);fill-opacity:1;" d="M 8.542969 3.546875 L 8.914062 3.9375 L 8.542969 3.546875 M 9.285156 3.546875 L 9.65625 3.9375 Z M 9.285156 3.546875 "/>
<path style=" stroke:none;fill-rule:nonzero;fill:rgb(68.627451%,85.098039%,60%);fill-opacity:1;" d="M 3.34375 3.9375 L 3.714844 4.332031 Z M 3.34375 3.9375 "/>
<path style=" stroke:none;fill-rule:nonzero;fill:rgb(77.647059%,89.019608%,70.980392%);fill-opacity:1;" d="M 9.65625 3.9375 L 10.027344 4.332031 L 9.65625 3.9375 M 8.914062 4.332031 L 9.285156 4.726562 Z M 8.914062 4.332031 "/>
<path style=" stroke:none;fill-rule:nonzero;fill:rgb(50.196078%,76.470588%,36.470588%);fill-opacity:1;" d="M 2.972656 4.726562 L 3.34375 5.121094 Z M 2.972656 4.726562 "/>
<path style=" stroke:none;fill-rule:nonzero;fill:rgb(68.627451%,85.098039%,60%);fill-opacity:1;" d="M 3.714844 4.726562 C 4.78125 6.019531 8.589844 6.019531 9.65625 4.726562 Z M 3.714844 4.726562 "/>
<path style=" stroke:none;fill-rule:nonzero;fill:rgb(50.196078%,76.470588%,36.470588%);fill-opacity:1;" d="M 10.027344 4.726562 L 10.398438 5.121094 Z M 10.027344 4.726562 "/>
<path style=" stroke:none;fill-rule:nonzero;fill:rgb(77.647059%,89.019608%,70.980392%);fill-opacity:1;" d="M 1.484375 5.121094 L 1.855469 5.515625 Z M 1.484375 5.121094 "/>
<path style=" stroke:none;fill-rule:nonzero;fill:rgb(68.627451%,85.098039%,60%);fill-opacity:1;" d="M 2.105469 5.253906 L 2.351562 5.382812 Z M 2.105469 5.253906 "/>
<path style=" stroke:none;fill-rule:nonzero;fill:rgb(50.196078%,76.470588%,36.470588%);fill-opacity:1;" d="M 2.601562 5.121094 L 2.972656 5.515625 Z M 2.601562 5.121094 "/>
<path style=" stroke:none;fill-rule:nonzero;fill:rgb(68.627451%,85.098039%,60%);fill-opacity:1;" d="M 10.398438 5.121094 L 10.398438 5.515625 L 11.515625 5.515625 Z M 10.398438 5.121094 "/>
<path style=" stroke:none;fill-rule:nonzero;fill:rgb(77.647059%,89.019608%,70.980392%);fill-opacity:1;" d="M 11.515625 5.121094 L 11.886719 5.515625 L 11.515625 5.121094 M 1.484375 5.910156 L 1.855469 6.304688 Z M 1.484375 5.910156 "/>
<path style=" stroke:none;fill-rule:nonzero;fill:rgb(68.627451%,85.098039%,60%);fill-opacity:1;" d="M 1.855469 5.910156 L 2.230469 6.304688 L 1.855469 5.910156 M 2.972656 5.910156 L 2.972656 6.304688 L 10.398438 6.304688 L 2.972656 5.910156 M 11.144531 5.910156 L 11.515625 6.304688 Z M 11.144531 5.910156 "/>
<path style=" stroke:none;fill-rule:nonzero;fill:rgb(77.647059%,89.019608%,70.980392%);fill-opacity:1;" d="M 11.515625 5.910156 L 11.886719 6.304688 Z M 11.515625 5.910156 "/>
<path style=" stroke:none;fill-rule:nonzero;fill:rgb(50.196078%,76.470588%,36.470588%);fill-opacity:1;" d="M 2.230469 6.304688 L 2.601562 6.695312 Z M 2.230469 6.304688 "/>
<path style=" stroke:none;fill-rule:nonzero;fill:rgb(99.607843%,99.607843%,99.215686%);fill-opacity:1;" d="M 2.972656 6.304688 L 3.714844 10.242188 L 9.65625 10.242188 L 10.027344 6.304688 Z M 2.972656 6.304688 "/>
<path style=" stroke:none;fill-rule:nonzero;fill:rgb(77.647059%,89.019608%,70.980392%);fill-opacity:1;" d="M 10.152344 6.566406 L 10.277344 6.828125 Z M 10.152344 6.566406 "/>
<path style=" stroke:none;fill-rule:nonzero;fill:rgb(50.196078%,76.470588%,36.470588%);fill-opacity:1;" d="M 10.769531 6.304688 L 11.144531 6.695312 Z M 10.769531 6.304688 "/>
<path style=" stroke:none;fill-rule:nonzero;fill:rgb(68.627451%,85.098039%,60%);fill-opacity:1;" d="M 2.230469 6.695312 L 2.601562 7.089844 L 2.230469 6.695312 M 2.972656 6.695312 L 3.34375 7.089844 Z M 2.972656 6.695312 "/>
<path style=" stroke:none;fill-rule:nonzero;fill:rgb(50.196078%,76.470588%,36.470588%);fill-opacity:1;" d="M 4.828125 6.695312 L 4.828125 9.847656 L 5.199219 9.847656 Z M 4.828125 6.695312 "/>
<path style=" stroke:none;fill-rule:nonzero;fill:rgb(68.627451%,85.098039%,60%);fill-opacity:1;" d="M 5.199219 6.695312 L 5.570312 7.089844 Z M 5.199219 6.695312 "/>
<path style=" stroke:none;fill-rule:nonzero;fill:rgb(50.196078%,76.470588%,36.470588%);fill-opacity:1;" d="M 6.5625 6.828125 L 6.808594 6.960938 Z M 6.5625 6.828125 "/>
<path style=" stroke:none;fill-rule:nonzero;fill:rgb(68.627451%,85.098039%,60%);fill-opacity:1;" d="M 7.800781 6.695312 L 8.171875 7.089844 Z M 7.800781 6.695312 "/>
<path style=" stroke:none;fill-rule:nonzero;fill:rgb(50.196078%,76.470588%,36.470588%);fill-opacity:1;" d="M 8.171875 6.695312 L 8.171875 9.847656 L 8.542969 9.847656 Z M 8.171875 6.695312 "/>
<path style=" stroke:none;fill-rule:nonzero;fill:rgb(68.627451%,85.098039%,60%);fill-opacity:1;" d="M 10.769531 6.695312 L 11.144531 7.089844 Z M 10.769531 6.695312 "/>
<path style=" stroke:none;fill-rule:nonzero;fill:rgb(77.647059%,89.019608%,70.980392%);fill-opacity:1;" d="M 2.230469 7.089844 L 2.601562 7.484375 Z M 2.230469 7.089844 "/>
<path style=" stroke:none;fill-rule:nonzero;fill:rgb(50.196078%,76.470588%,36.470588%);fill-opacity:1;" d="M 3.09375 7.355469 L 3.21875 7.617188 Z M 3.09375 7.355469 "/>
<path style=" stroke:none;fill-rule:nonzero;fill:rgb(24.313725%,64.313725%,3.529412%);fill-opacity:1;" d="M 4.828125 7.089844 L 4.828125 9.453125 L 5.199219 9.453125 L 4.828125 7.089844 M 6.3125 7.089844 L 6.3125 9.453125 L 7.058594 9.453125 L 7.058594 7.089844 L 6.3125 7.089844 M 8.171875 7.089844 L 8.171875 9.453125 L 8.542969 9.453125 Z M 8.171875 7.089844 "/>
<path style=" stroke:none;fill-rule:nonzero;fill:rgb(68.627451%,85.098039%,60%);fill-opacity:1;" d="M 10.027344 7.089844 L 10.398438 7.484375 Z M 10.027344 7.089844 "/>
<path style=" stroke:none;fill-rule:nonzero;fill:rgb(77.647059%,89.019608%,70.980392%);fill-opacity:1;" d="M 10.894531 7.355469 L 11.019531 7.617188 Z M 10.894531 7.355469 "/>
<path style=" stroke:none;fill-rule:nonzero;fill:rgb(50.196078%,76.470588%,36.470588%);fill-opacity:1;" d="M 10.027344 7.484375 L 10.398438 7.878906 L 10.027344 7.484375 M 10.523438 8.535156 L 10.648438 8.796875 L 10.523438 8.535156 M 2.601562 8.667969 L 2.972656 9.0625 Z M 2.601562 8.667969 "/>
<path style=" stroke:none;fill-rule:nonzero;fill:rgb(77.647059%,89.019608%,70.980392%);fill-opacity:1;" d="M 3.34375 8.667969 L 3.714844 9.0625 L 3.34375 8.667969 M 9.65625 8.667969 L 10.027344 9.0625 Z M 9.65625 8.667969 "/>
<path style=" stroke:none;fill-rule:nonzero;fill:rgb(68.627451%,85.098039%,60%);fill-opacity:1;" d="M 2.601562 9.0625 L 2.972656 9.453125 L 2.601562 9.0625 M 3.34375 9.0625 L 3.714844 9.453125 L 3.34375 9.0625 M 9.65625 9.0625 L 10.027344 9.453125 L 9.65625 9.0625 M 10.398438 9.0625 L 10.769531 9.453125 Z M 10.398438 9.0625 "/>
<path style=" stroke:none;fill-rule:nonzero;fill:rgb(77.647059%,89.019608%,70.980392%);fill-opacity:1;" d="M 2.601562 9.453125 L 2.972656 9.847656 Z M 2.601562 9.453125 "/>
<path style=" stroke:none;fill-rule:nonzero;fill:rgb(50.196078%,76.470588%,36.470588%);fill-opacity:1;" d="M 3.34375 9.453125 L 3.714844 9.847656 Z M 3.34375 9.453125 "/>
<path style=" stroke:none;fill-rule:nonzero;fill:rgb(77.647059%,89.019608%,70.980392%);fill-opacity:1;" d="M 5.199219 9.453125 L 5.570312 9.847656 Z M 5.199219 9.453125 "/>
<path style=" stroke:none;fill-rule:nonzero;fill:rgb(68.627451%,85.098039%,60%);fill-opacity:1;" d="M 6.5625 9.585938 L 6.808594 9.71875 Z M 6.5625 9.585938 "/>
<path style=" stroke:none;fill-rule:nonzero;fill:rgb(77.647059%,89.019608%,70.980392%);fill-opacity:1;" d="M 7.800781 9.453125 L 8.171875 9.847656 Z M 7.800781 9.453125 "/>
<path style=" stroke:none;fill-rule:nonzero;fill:rgb(50.196078%,76.470588%,36.470588%);fill-opacity:1;" d="M 9.65625 9.453125 L 10.027344 9.847656 Z M 9.65625 9.453125 "/>
<path style=" stroke:none;fill-rule:nonzero;fill:rgb(77.647059%,89.019608%,70.980392%);fill-opacity:1;" d="M 10.398438 9.453125 L 10.769531 9.847656 Z M 10.398438 9.453125 "/>
<path style=" stroke:none;fill-rule:nonzero;fill:rgb(68.627451%,85.098039%,60%);fill-opacity:1;" d="M 2.972656 10.242188 L 3.34375 10.636719 Z M 2.972656 10.242188 "/>
<path style=" stroke:none;fill-rule:nonzero;fill:rgb(50.196078%,76.470588%,36.470588%);fill-opacity:1;" d="M 4.085938 10.242188 L 4.085938 10.636719 L 9.285156 10.636719 Z M 4.085938 10.242188 "/>
<path style=" stroke:none;fill-rule:nonzero;fill:rgb(68.627451%,85.098039%,60%);fill-opacity:1;" d="M 10.027344 10.242188 L 10.398438 10.636719 L 10.027344 10.242188 M 3.34375 10.636719 L 3.714844 11.03125 L 3.34375 10.636719 M 9.65625 10.636719 L 10.027344 11.03125 Z M 9.65625 10.636719 "/>
</g>
</svg>
