<svg width="22" height="15" viewBox="0 0 22 15" fill="none" xmlns="http://www.w3.org/2000/svg">
<path d="M16.0862 6.62855L7.99959 6.53798C7.86535 6.53413 7.7323 6.55705 7.60819 6.60539C7.48408 6.65373 7.3714 6.72652 7.27672 6.81953C7.18205 6.91254 7.10728 7.02389 7.05677 7.14709C7.00626 7.27029 6.98103 7.40288 6.98254 7.53711C6.98406 7.67134 7.01229 7.80453 7.06559 7.9289C7.11889 8.05328 7.1962 8.16634 7.293 8.26151C7.3898 8.35668 7.50415 8.43204 7.62938 8.48319C7.75462 8.53435 7.88822 8.56027 8.02241 8.55945L16.109 8.65145C16.9134 8.66053 17.6812 8.3497 18.2436 7.78733C18.806 7.22497 19.1168 6.45714 19.1077 5.65276C19.0986 4.84838 18.7704 4.07334 18.1952 3.49813C17.62 2.92293 16.8449 2.59468 16.0405 2.5856L7.95323 2.49431C7.28404 2.47833 6.62133 2.59534 6.00355 2.83856C5.38578 3.08179 4.82523 3.44638 4.35442 3.91119C3.88361 4.376 3.51192 4.93178 3.2609 5.54629C3.00988 6.16079 2.88454 6.82179 2.89214 7.49094C2.89974 8.16009 3.04014 8.82407 3.30518 9.44437C3.57022 10.0647 3.95464 10.6289 4.43612 11.1044C4.91761 11.5799 5.48659 11.9572 6.11005 12.2143C6.73351 12.4715 7.39904 12.6034 8.06804 12.6024L16.1547 12.6944L16.1775 14.7159L8.09015 14.6246C7.16084 14.6141 6.23857 14.4207 5.37598 14.0553C4.5134 13.69 3.7274 13.16 3.06286 12.4954C2.39832 11.8309 1.86825 11.0449 1.50293 10.1823C1.13761 9.3197 0.944179 8.39743 0.933689 7.46812C0.9232 6.5388 1.09585 5.62066 1.44179 4.7661C1.78773 3.91155 2.30018 3.13732 2.94989 2.48761C3.59959 1.83791 4.37383 1.32546 5.22838 0.979515C6.08294 0.633575 7.00108 0.46092 7.93039 0.47141L16.0177 0.564129C17.3431 0.602118 18.6123 1.15894 19.5519 2.11467C20.4915 3.0704 21.0264 4.34856 21.0414 5.67387C21.0563 6.99918 20.5502 8.2656 19.6319 9.20035C18.7136 10.1351 17.4567 10.6634 16.1318 10.6715L8.04381 10.5823C7.64547 10.5778 7.25016 10.4948 6.88044 10.3382C6.51073 10.1816 6.17384 9.95433 5.88903 9.66945C5.60422 9.38457 5.37705 9.04764 5.2205 8.67789C5.06396 8.30813 4.98109 7.9128 4.97664 7.51447C4.97219 7.11613 5.04625 6.72259 5.19457 6.35631C5.3429 5.99004 5.56259 5.6582 5.84111 5.37975C6.11963 5.1013 6.45152 4.88168 6.81784 4.73344C7.18415 4.5852 7.57771 4.51124 7.97605 4.51579L16.0634 4.60707L16.0862 6.62855Z" fill="#333333"/>
</svg>
