<svg width="18" height="18" viewBox="0 0 18 18" fill="none" xmlns="http://www.w3.org/2000/svg">
<path d="M13.1019 0.857143L11.1971 2.7619H1.90476V16.0952H15.2381V6.80286L17.1429 4.8981V17.0476C17.1429 17.3002 17.0425 17.5424 16.8639 17.7211C16.6853 17.8997 16.4431 18 16.1905 18H0.952381C0.699794 18 0.457552 17.8997 0.278946 17.7211C0.10034 17.5424 0 17.3002 0 17.0476V1.80952C0 1.55694 0.10034 1.31469 0.278946 1.13609C0.457552 0.957483 0.699794 0.857143 0.952381 0.857143H13.1019ZM16.6524 0L18 1.34857L9.24571 10.1029L7.90095 10.1057L7.89905 8.75619L16.6524 0Z" fill="#7565C9"/>
</svg>
