<svg width="18" height="16" viewBox="0 0 18 16" fill="none" xmlns="http://www.w3.org/2000/svg">
<path d="M16 1.77778H1.77778V14.2222L10.0373 5.96089C10.204 5.79425 10.4301 5.70063 10.6658 5.70063C10.9015 5.70063 11.1275 5.79425 11.2942 5.96089L16 10.6756V1.77778ZM0 0.882667C0.00162671 0.649225 0.0950225 0.425793 0.260011 0.260638C0.425 0.0954826 0.648338 0.00186191 0.881778 0H16.896C17.3831 0 17.7778 0.395556 17.7778 0.882667V15.1173C17.7762 15.3508 17.6828 15.5742 17.5178 15.7394C17.3528 15.9045 17.1294 15.9981 16.896 16H0.881778C0.647834 15.9998 0.423553 15.9067 0.258213 15.7412C0.0928729 15.5757 -1.18627e-07 15.3513 0 15.1173V0.882667ZM5.33333 7.11111C4.86184 7.11111 4.40965 6.92381 4.07625 6.59041C3.74286 6.25701 3.55556 5.80483 3.55556 5.33333C3.55556 4.86184 3.74286 4.40965 4.07625 4.07625C4.40965 3.74286 4.86184 3.55556 5.33333 3.55556C5.80483 3.55556 6.25701 3.74286 6.59041 4.07625C6.92381 4.40965 7.11111 4.86184 7.11111 5.33333C7.11111 5.80483 6.92381 6.25701 6.59041 6.59041C6.25701 6.92381 5.80483 7.11111 5.33333 7.11111Z" fill="#333333"/>
</svg>
