<svg width="43" height="40" viewBox="0 0 43 40" fill="none" xmlns="http://www.w3.org/2000/svg">
<path fill-rule="evenodd" clip-rule="evenodd" d="M42.635 25.9848C42.3505 23.4045 41.3071 22.3822 39.8844 21.798C40.6432 21.2138 42.4453 19.5099 42.1608 16.9297C41.9237 14.7876 41.1174 13.6679 40.0267 13.035C40.8329 12.3534 42.3979 10.6982 42.1608 8.31269C41.8288 5.09959 40.2164 4.27197 38.3194 3.83382L21.294 0.0365125C21.0095 -0.0121708 20.7249 -0.0121708 20.4404 0.0365125L1.37571 4.56407C0.948893 4.66143 0.948893 5.19695 1.32829 5.343L19.1599 12.256L38.1297 6.17062C38.1297 6.17062 40.5009 5.87852 40.5009 8.55611C40.5009 11.2337 38.4142 11.9639 38.4142 11.9639L33.245 14.0086C33.2924 14.1547 33.3161 14.2764 33.3339 14.3677C33.3517 14.459 33.3635 14.5198 33.3873 14.5442C33.5295 15.2744 33.7192 15.956 33.9089 16.5889L37.6555 14.9823C38.1771 14.7389 38.7936 14.7389 39.3153 14.9823C39.8844 15.2257 40.5009 15.8586 40.5009 17.1731C40.5009 19.8507 38.4142 20.5809 38.4142 20.5809L36.8018 21.2625C37.1812 21.5546 37.4658 21.7006 37.5132 21.7006C38.0349 21.8954 38.3194 22.4796 38.1771 23.0638C38.0349 23.5993 37.5606 23.9401 37.0864 23.9401H36.9441L34.146 23.5506V25.4006C34.146 25.4979 34.146 25.644 34.0986 25.7413L38.1297 24.0374C38.6514 23.794 39.2679 23.794 39.7896 24.0374C40.3587 24.2808 40.9752 24.9137 40.9752 26.2282C40.9752 28.9058 38.8885 29.636 38.8885 29.636L20.3929 37.474C19.9661 37.6201 19.4919 37.6201 19.0651 37.4254L3.32012 29.8307C3.32012 29.8307 5.16967 28.1755 5.31195 27.7374L0.759195 29.49C0.474648 29.5873 0.427224 30.0742 0.759195 30.2202L18.8754 39.8108C19.3022 40.0543 19.8238 40.0543 20.2981 39.8595L39.7896 31.1452C39.9793 31.0478 40.169 30.9505 40.3587 30.8044C41.1174 30.2202 42.9196 28.5163 42.635 25.9848ZM18.0193 22.3341L0.614546 13.7658L0.58377 13.7452C0.434987 13.6466 0.187725 13.4828 0.187725 12.9382C0.187725 12.5488 0.377423 12.3053 0.519697 12.208C0.543409 12.1836 0.567122 12.1715 0.590834 12.1593C0.614546 12.1471 0.638258 12.1349 0.66197 12.1106L4.88275 10.1146C4.74048 10.5527 2.89092 12.208 2.89092 12.208L18.6833 19.2184C19.1101 19.4131 19.5843 19.4131 20.0112 19.2671L26.6506 16.6382C26.7488 16.8686 26.8553 17.1118 26.9652 17.3627C27.2268 17.9601 27.5076 18.6013 27.7414 19.2184L20.3431 22.3828C19.5843 22.7236 18.7307 22.6749 18.0193 22.3341ZM36.9006 22.6913L36.9006 22.6913C36.9618 22.7253 37.008 22.7509 37.0367 22.7706L34.1438 22.3325L32.9582 22.1864V22.868V25.3995L32.6737 25.2535C32.65 25.2535 32.6381 25.2413 32.6263 25.2291C32.6144 25.2169 32.6025 25.2048 32.5788 25.2048C32.5314 25.2048 32.4366 25.1561 32.3891 25.1074L32.3417 25.0587C32.2943 24.9614 32.1994 24.9127 32.1046 24.864H32.0572C31.9623 24.8153 31.8675 24.7666 31.82 24.7179L31.7726 24.6693C31.7489 24.6449 31.7133 24.6206 31.6778 24.5962C31.6422 24.5719 31.6066 24.5475 31.5829 24.5232L31.5355 24.4745C31.4406 24.4258 31.3458 24.3285 31.2984 24.2798L31.1087 24.0851C31.0612 24.0851 31.0612 24.0364 31.0612 24.0364C29.9231 22.7706 29.4962 21.2614 29.4962 21.2614C29.354 20.4825 29.0694 19.6549 28.7374 18.8272C28.5003 18.1457 28.2158 17.5128 27.9312 16.8799L27.6467 16.2957C26.8879 14.7378 26.2714 13.5694 26.2714 13.5694L30.7767 11.5247C31.82 12.6931 32.2469 14.8352 32.2469 14.8352L32.3891 15.4194V15.4681C32.4128 15.5411 32.4366 15.6263 32.4603 15.7115L32.4603 15.7115L32.4603 15.7117C32.484 15.7968 32.5077 15.882 32.5314 15.9549V16.0036L32.8159 17.026C33.6222 19.4601 34.7129 20.9206 35.614 21.7483C36.1816 22.2921 36.6587 22.557 36.9006 22.6913ZM18.5904 31.4373L0.521669 21.9927C0.331971 21.944 0 21.7493 0 21.1651C0 20.5809 0.331971 20.3862 0.474245 20.3375C0.474245 20.2888 0.521669 20.2888 0.521669 20.2888L4.88472 18.6822C4.74245 19.1204 2.89289 20.7756 2.89289 20.7756L18.5904 28.3702C19.0172 28.565 19.4915 28.565 19.9183 28.4189L29.7826 24.2321C30.3991 25.0598 31.2527 25.8874 32.3909 26.4229L20.5348 31.486C19.9183 31.7781 19.2069 31.7294 18.5904 31.4373Z" fill="#00346F"/>
<path fill-rule="evenodd" clip-rule="evenodd" d="M36.8988 22.691C36.96 22.725 37.0062 22.7506 37.0349 22.7703L34.142 22.3321L32.9564 22.1861V22.8676V25.3992L32.6718 25.2531C32.6481 25.2531 32.6363 25.241 32.6244 25.2288C32.6126 25.2166 32.6007 25.2044 32.577 25.2044C32.5296 25.2044 32.4347 25.1558 32.3873 25.1071L32.3399 25.0584C32.2924 24.961 32.1976 24.9123 32.1027 24.8637H32.0553C31.9605 24.815 31.8656 24.7663 31.8182 24.7176L31.7708 24.6689C31.7471 24.6446 31.7115 24.6202 31.6759 24.5959C31.6404 24.5716 31.6048 24.5472 31.5811 24.5229L31.5336 24.4742C31.4388 24.4255 31.344 24.3281 31.2965 24.2795L31.1068 24.0847C31.0594 24.0847 31.0594 24.036 31.0594 24.036C29.9212 22.7703 29.4944 21.2611 29.4944 21.2611C29.3521 20.4822 29.0676 19.6545 28.7356 18.8269C28.4985 18.1454 28.2139 17.5125 27.9294 16.8796L27.6448 16.2954C26.886 14.7375 26.2695 13.5691 26.2695 13.5691L30.7749 11.5244C31.8182 12.6928 32.245 14.8349 32.245 14.8349L32.3873 15.4191V15.4678C32.411 15.5408 32.4347 15.626 32.4584 15.7112C32.4821 15.7963 32.5059 15.8816 32.5296 15.9546V16.0033L32.8141 17.0256C33.6203 19.4598 34.7111 20.9203 35.6122 21.7479C36.1798 22.2918 36.6569 22.5567 36.8988 22.691Z" fill="#00E392"/>
</svg>
