<svg width="16" height="14" viewBox="0 0 16 14" fill="none" xmlns="http://www.w3.org/2000/svg">
<path d="M8 0C11.9871 0 15.3042 2.86903 16 6.65496C15.3049 10.4409 11.9871 13.3099 8 13.3099C4.01294 13.3099 0.695813 10.4409 0 6.65496C0.695073 2.86903 4.01294 0 8 0ZM8 11.831C9.50806 11.8307 10.9714 11.3185 12.1504 10.3782C13.3294 9.43785 14.1543 8.12517 14.4901 6.65496C14.1531 5.18592 13.3276 3.87467 12.1487 2.9356C10.9698 1.99652 9.5072 1.48519 8 1.48519C6.4928 1.48519 5.03018 1.99652 3.85128 2.9356C2.67238 3.87467 1.84695 5.18592 1.50994 6.65496C1.84571 8.12517 2.67062 9.43785 3.84963 10.3782C5.02865 11.3185 6.49194 11.8307 8 11.831ZM8 9.98244C7.1175 9.98244 6.27114 9.63186 5.64712 9.00784C5.02309 8.38382 4.67252 7.53746 4.67252 6.65496C4.67252 5.77246 5.02309 4.9261 5.64712 4.30208C6.27114 3.67805 7.1175 3.32748 8 3.32748C8.8825 3.32748 9.72886 3.67805 10.3529 4.30208C10.9769 4.9261 11.3275 5.77246 11.3275 6.65496C11.3275 7.53746 10.9769 8.38382 10.3529 9.00784C9.72886 9.63186 8.8825 9.98244 8 9.98244ZM8 8.50356C8.49028 8.50356 8.96048 8.3088 9.30716 7.96212C9.65384 7.61544 9.8486 7.14524 9.8486 6.65496C9.8486 6.16468 9.65384 5.69448 9.30716 5.3478C8.96048 5.00112 8.49028 4.80636 8 4.80636C7.50972 4.80636 7.03952 5.00112 6.69284 5.3478C6.34616 5.69448 6.1514 6.16468 6.1514 6.65496C6.1514 7.14524 6.34616 7.61544 6.69284 7.96212C7.03952 8.3088 7.50972 8.50356 8 8.50356Z" fill="white"/>
</svg>
