<svg width="40" height="40" viewBox="0 0 40 40" fill="none" xmlns="http://www.w3.org/2000/svg">
<path fill-rule="evenodd" clip-rule="evenodd" d="M9.45368 10.9555H22.6517C23.5032 10.9555 24.2696 10.1912 24.3547 9.25698V7.21834H28.6072V14.2672C28.6072 15.2014 29.3735 15.9658 30.3102 15.9658C31.2468 15.9658 32.0131 15.2014 32.0131 14.2672V5.51982C32.0131 4.58563 31.2468 3.82129 30.3102 3.82129H24.3547V1.69853C24.3547 0.764338 23.5884 0 22.6517 0H9.45368C8.51704 0 7.7507 0.764338 7.7507 1.69853V3.82169H1.70297C0.766338 3.82169 0 4.58603 0 5.52022V38.3018C0 39.236 0.766338 40.0003 1.70297 40.0003H30.3129C31.2496 40.0003 32.0159 39.3209 32.0159 38.3867V27.5161C32.0159 26.582 31.2496 25.8176 30.3129 25.8176C29.3763 25.8176 28.61 26.582 28.61 27.5161V36.6882H3.40595V7.21874H7.7507V9.25698C7.7507 10.1912 8.51704 10.9555 9.45368 10.9555ZM20.9488 7.64338H11.0715V3.39706H20.9488V7.64338Z" fill="#00346F"/>
<path d="M17.5425 35.1601C17.1167 35.1601 16.691 34.9902 16.3504 34.6505C15.9246 34.2259 15.7543 33.5465 15.9246 32.952L18.1385 25.9031C18.3939 24.9689 18.9048 24.2046 19.586 23.5252L30.5702 12.5697C31.592 11.5505 33.0395 10.9561 34.4871 10.9561C35.9346 10.9561 37.3821 11.5505 38.4039 12.5697C40.5326 14.6928 40.5326 18.2597 38.4039 20.3829L27.5049 31.3384C26.8237 32.0178 25.9722 32.5274 25.1207 32.7821L18.0534 34.9902C17.8831 35.0751 17.7128 35.1601 17.5425 35.1601ZM34.5722 14.1833C33.9762 14.1833 33.3801 14.438 33.0395 14.8627L21.9702 25.8182C21.7147 26.073 21.4593 26.4976 21.289 26.9222L20.0969 30.9138L24.0989 29.6399C24.5247 29.5549 24.8652 29.3002 25.1207 28.9604L36.1049 18.0049C36.9564 17.1557 36.9564 15.7119 36.1049 14.8627C35.7643 14.438 35.1682 14.1833 34.5722 14.1833Z" fill="#00E392"/>
</svg>
